<svg width="604" height="115" viewBox="0 0 604 115" fill="none" xmlns="http://www.w3.org/2000/svg">
<rect width="604" height="114.873" fill="#33652F"/>
<path d="M1.44232 38.3199C1.44232 4.19429 -31.2712 44.0494 604 90.8923V114.873H1.44232C1.44232 114.873 1.44232 72.4455 1.44232 38.3199Z" fill="#97FC9B" fill-opacity="0.4"/>
<path d="M27.5795 41H25.3636L31.7727 23.5455H33.9545L40.3636 41H38.1477L32.9318 26.3068H32.7955L27.5795 41ZM28.3977 34.1818H37.3295V36.0568H28.3977V34.1818ZM49.5597 41V27.9091H51.5028V29.9545H51.6733C51.946 29.2557 52.3864 28.7131 52.9943 28.3267C53.6023 27.9347 54.3324 27.7386 55.1847 27.7386C56.0483 27.7386 56.767 27.9347 57.3409 28.3267C57.9205 28.7131 58.3722 29.2557 58.696 29.9545H58.8324C59.1676 29.2784 59.6705 28.7415 60.3409 28.3438C61.0114 27.9403 61.8153 27.7386 62.7528 27.7386C63.9233 27.7386 64.8807 28.1051 65.625 28.8381C66.3693 29.5653 66.7415 30.6989 66.7415 32.2386V41H64.7301V32.2386C64.7301 31.2727 64.4659 30.5824 63.9375 30.1676C63.4091 29.7528 62.7869 29.5455 62.071 29.5455C61.1506 29.5455 60.4375 29.8239 59.9318 30.3807C59.4261 30.9318 59.1733 31.6307 59.1733 32.4773V41H57.1278V32.0341C57.1278 31.2898 56.8864 30.6903 56.4034 30.2358C55.9205 29.7756 55.2983 29.5455 54.5369 29.5455C54.0142 29.5455 53.5256 29.6847 53.071 29.9631C52.6222 30.2415 52.2585 30.6278 51.9801 31.1222C51.7074 31.6108 51.571 32.1761 51.571 32.8182V41H49.5597ZM74.2713 41.3068C73.4418 41.3068 72.6889 41.1506 72.0128 40.8381C71.3366 40.5199 70.7997 40.0625 70.402 39.4659C70.0043 38.8636 69.8054 38.1364 69.8054 37.2841C69.8054 36.5341 69.9531 35.9261 70.2486 35.4602C70.544 34.9886 70.9389 34.6193 71.4332 34.3523C71.9276 34.0852 72.473 33.8864 73.0696 33.7557C73.6719 33.6193 74.277 33.5114 74.8849 33.4318C75.6804 33.3295 76.3253 33.2528 76.8196 33.2017C77.3196 33.1449 77.6832 33.0511 77.9105 32.9205C78.1435 32.7898 78.2599 32.5625 78.2599 32.2386V32.1705C78.2599 31.3295 78.0298 30.6761 77.5696 30.2102C77.1151 29.7443 76.4247 29.5114 75.4986 29.5114C74.5384 29.5114 73.7855 29.7216 73.2401 30.142C72.6946 30.5625 72.3111 31.0114 72.0895 31.4886L70.1804 30.8068C70.5213 30.0114 70.9759 29.392 71.544 28.9489C72.1179 28.5 72.7429 28.1875 73.419 28.0114C74.1009 27.8295 74.7713 27.7386 75.4304 27.7386C75.8509 27.7386 76.3338 27.7898 76.8793 27.892C77.4304 27.9886 77.9616 28.1903 78.473 28.4972C78.9901 28.804 79.419 29.267 79.7599 29.8864C80.1009 30.5057 80.2713 31.3352 80.2713 32.375V41H78.2599V39.2273H78.1577C78.0213 39.5114 77.794 39.8153 77.4759 40.1392C77.1577 40.4631 76.7344 40.7386 76.206 40.9659C75.6776 41.1932 75.0327 41.3068 74.2713 41.3068ZM74.5781 39.5C75.3736 39.5 76.044 39.3438 76.5895 39.0312C77.1406 38.7188 77.5554 38.3153 77.8338 37.821C78.1179 37.3267 78.2599 36.8068 78.2599 36.2614V34.4205C78.1747 34.5227 77.9872 34.6165 77.6974 34.7017C77.4134 34.7812 77.0838 34.8523 76.7088 34.9148C76.3395 34.9716 75.9787 35.0227 75.6264 35.0682C75.2798 35.108 74.9986 35.142 74.7827 35.1705C74.2599 35.2386 73.7713 35.3494 73.3168 35.5028C72.8679 35.6506 72.5043 35.875 72.2259 36.1761C71.9531 36.4716 71.8168 36.875 71.8168 37.3864C71.8168 38.0852 72.0753 38.6136 72.5923 38.9716C73.1151 39.3239 73.777 39.5 74.5781 39.5ZM83.9425 41V27.9091H85.9538V41H83.9425ZM84.9652 25.7273C84.5732 25.7273 84.2351 25.5938 83.951 25.3267C83.6726 25.0597 83.5334 24.7386 83.5334 24.3636C83.5334 23.9886 83.6726 23.6676 83.951 23.4006C84.2351 23.1335 84.5732 23 84.9652 23C85.3572 23 85.6925 23.1335 85.9709 23.4006C86.255 23.6676 86.397 23.9886 86.397 24.3636C86.397 24.7386 86.255 25.0597 85.9709 25.3267C85.6925 25.5938 85.3572 25.7273 84.9652 25.7273ZM94.956 41.2727C93.7741 41.2727 92.7372 40.9915 91.8452 40.429C90.9588 39.8665 90.2656 39.0795 89.7656 38.0682C89.2713 37.0568 89.0241 35.875 89.0241 34.5227C89.0241 33.1591 89.2713 31.9687 89.7656 30.9517C90.2656 29.9347 90.9588 29.1449 91.8452 28.5824C92.7372 28.0199 93.7741 27.7386 94.956 27.7386C96.1378 27.7386 97.1719 28.0199 98.0582 28.5824C98.9503 29.1449 99.6435 29.9347 100.138 30.9517C100.638 31.9687 100.888 33.1591 100.888 34.5227C100.888 35.875 100.638 37.0568 100.138 38.0682C99.6435 39.0795 98.9503 39.8665 98.0582 40.429C97.1719 40.9915 96.1378 41.2727 94.956 41.2727ZM94.956 39.4659C95.8537 39.4659 96.5923 39.2358 97.1719 38.7756C97.7514 38.3153 98.1804 37.7102 98.4588 36.9602C98.7372 36.2102 98.8764 35.3977 98.8764 34.5227C98.8764 33.6477 98.7372 32.8324 98.4588 32.0767C98.1804 31.321 97.7514 30.7102 97.1719 30.2443C96.5923 29.7784 95.8537 29.5455 94.956 29.5455C94.0582 29.5455 93.3196 29.7784 92.7401 30.2443C92.1605 30.7102 91.7315 31.321 91.4531 32.0767C91.1747 32.8324 91.0355 33.6477 91.0355 34.5227C91.0355 35.3977 91.1747 36.2102 91.4531 36.9602C91.7315 37.7102 92.1605 38.3153 92.7401 38.7756C93.3196 39.2358 94.0582 39.4659 94.956 39.4659ZM103.958 41V27.9091H105.901V29.8864H106.038C106.276 29.2386 106.708 28.7131 107.333 28.3097C107.958 27.9062 108.663 27.7045 109.447 27.7045C109.594 27.7045 109.779 27.7074 110.001 27.7131C110.222 27.7187 110.39 27.7273 110.504 27.7386V29.7841C110.435 29.767 110.279 29.7415 110.035 29.7074C109.796 29.6676 109.543 29.6477 109.276 29.6477C108.64 29.6477 108.072 29.7812 107.572 30.0483C107.077 30.3097 106.685 30.6733 106.396 31.1392C106.112 31.5994 105.969 32.125 105.969 32.7159V41H103.958ZM125.331 27.9091V29.6136H118.547V27.9091H125.331ZM120.524 24.7727H122.536V37.25C122.536 37.8182 122.618 38.2443 122.783 38.5284C122.953 38.8068 123.169 38.9943 123.43 39.0909C123.697 39.1818 123.979 39.2273 124.274 39.2273C124.496 39.2273 124.678 39.2159 124.82 39.1932C124.962 39.1648 125.075 39.142 125.161 39.125L125.57 40.9318C125.433 40.983 125.243 41.0341 124.999 41.0852C124.754 41.142 124.445 41.1705 124.07 41.1705C123.501 41.1705 122.945 41.0483 122.399 40.804C121.859 40.5597 121.411 40.1875 121.053 39.6875C120.7 39.1875 120.524 38.5568 120.524 37.7955V24.7727ZM132.209 41.3068C131.379 41.3068 130.626 41.1506 129.95 40.8381C129.274 40.5199 128.737 40.0625 128.339 39.4659C127.942 38.8636 127.743 38.1364 127.743 37.2841C127.743 36.5341 127.891 35.9261 128.186 35.4602C128.482 34.9886 128.876 34.6193 129.371 34.3523C129.865 34.0852 130.411 33.8864 131.007 33.7557C131.609 33.6193 132.214 33.5114 132.822 33.4318C133.618 33.3295 134.263 33.2528 134.757 33.2017C135.257 33.1449 135.621 33.0511 135.848 32.9205C136.081 32.7898 136.197 32.5625 136.197 32.2386V32.1705C136.197 31.3295 135.967 30.6761 135.507 30.2102C135.053 29.7443 134.362 29.5114 133.436 29.5114C132.476 29.5114 131.723 29.7216 131.178 30.142C130.632 30.5625 130.249 31.0114 130.027 31.4886L128.118 30.8068C128.459 30.0114 128.913 29.392 129.482 28.9489C130.055 28.5 130.68 28.1875 131.357 28.0114C132.038 27.8295 132.709 27.7386 133.368 27.7386C133.788 27.7386 134.271 27.7898 134.817 27.892C135.368 27.9886 135.899 28.1903 136.411 28.4972C136.928 28.804 137.357 29.267 137.697 29.8864C138.038 30.5057 138.209 31.3352 138.209 32.375V41H136.197V39.2273H136.095C135.959 39.5114 135.732 39.8153 135.413 40.1392C135.095 40.4631 134.672 40.7386 134.143 40.9659C133.615 41.1932 132.97 41.3068 132.209 41.3068ZM132.516 39.5C133.311 39.5 133.982 39.3438 134.527 39.0312C135.078 38.7188 135.493 38.3153 135.771 37.821C136.055 37.3267 136.197 36.8068 136.197 36.2614V34.4205C136.112 34.5227 135.925 34.6165 135.635 34.7017C135.351 34.7812 135.021 34.8523 134.646 34.9148C134.277 34.9716 133.916 35.0227 133.564 35.0682C133.217 35.108 132.936 35.142 132.72 35.1705C132.197 35.2386 131.709 35.3494 131.254 35.5028C130.805 35.6506 130.442 35.875 130.163 36.1761C129.891 36.4716 129.754 36.875 129.754 37.3864C129.754 38.0852 130.013 38.6136 130.53 38.9716C131.053 39.3239 131.714 39.5 132.516 39.5ZM143.38 27.9091L146.516 33.2614L149.653 27.9091H151.971L147.744 34.4545L151.971 41H149.653L146.516 35.9205L143.38 41H141.062L145.221 34.4545L141.062 27.9091H143.38ZM158.693 41.3068C157.864 41.3068 157.111 41.1506 156.435 40.8381C155.759 40.5199 155.222 40.0625 154.824 39.4659C154.426 38.8636 154.227 38.1364 154.227 37.2841C154.227 36.5341 154.375 35.9261 154.67 35.4602C154.966 34.9886 155.361 34.6193 155.855 34.3523C156.349 34.0852 156.895 33.8864 157.491 33.7557C158.094 33.6193 158.699 33.5114 159.307 33.4318C160.102 33.3295 160.747 33.2528 161.241 33.2017C161.741 33.1449 162.105 33.0511 162.332 32.9205C162.565 32.7898 162.682 32.5625 162.682 32.2386V32.1705C162.682 31.3295 162.452 30.6761 161.991 30.2102C161.537 29.7443 160.847 29.5114 159.92 29.5114C158.96 29.5114 158.207 29.7216 157.662 30.142C157.116 30.5625 156.733 31.0114 156.511 31.4886L154.602 30.8068C154.943 30.0114 155.398 29.392 155.966 28.9489C156.54 28.5 157.165 28.1875 157.841 28.0114C158.523 27.8295 159.193 27.7386 159.852 27.7386C160.273 27.7386 160.756 27.7898 161.301 27.892C161.852 27.9886 162.384 28.1903 162.895 28.4972C163.412 28.804 163.841 29.267 164.182 29.8864C164.523 30.5057 164.693 31.3352 164.693 32.375V41H162.682V39.2273H162.58C162.443 39.5114 162.216 39.8153 161.898 40.1392C161.58 40.4631 161.156 40.7386 160.628 40.9659C160.099 41.1932 159.455 41.3068 158.693 41.3068ZM159 39.5C159.795 39.5 160.466 39.3438 161.011 39.0312C161.563 38.7188 161.977 38.3153 162.256 37.821C162.54 37.3267 162.682 36.8068 162.682 36.2614V34.4205C162.597 34.5227 162.409 34.6165 162.119 34.7017C161.835 34.7812 161.506 34.8523 161.131 34.9148C160.761 34.9716 160.401 35.0227 160.048 35.0682C159.702 35.108 159.42 35.142 159.205 35.1705C158.682 35.2386 158.193 35.3494 157.739 35.5028C157.29 35.6506 156.926 35.875 156.648 36.1761C156.375 36.4716 156.239 36.875 156.239 37.3864C156.239 38.0852 156.497 38.6136 157.014 38.9716C157.537 39.3239 158.199 39.5 159 39.5ZM180.058 41.2727C178.967 41.2727 178.004 40.9972 177.168 40.446C176.333 39.8892 175.68 39.1051 175.208 38.0938C174.737 37.0767 174.501 35.875 174.501 34.4886C174.501 33.1136 174.737 31.9205 175.208 30.9091C175.68 29.8977 176.336 29.1165 177.177 28.5653C178.018 28.0142 178.989 27.7386 180.092 27.7386C180.944 27.7386 181.617 27.8807 182.112 28.1648C182.612 28.4432 182.992 28.7614 183.254 29.1193C183.521 29.4716 183.728 29.7614 183.876 29.9886H184.046V23.5455H186.058V41H184.114V38.9886H183.876C183.728 39.2273 183.518 39.5284 183.245 39.892C182.972 40.25 182.583 40.571 182.077 40.8551C181.572 41.1335 180.898 41.2727 180.058 41.2727ZM180.33 39.4659C181.137 39.4659 181.819 39.2557 182.376 38.8352C182.933 38.4091 183.356 37.821 183.646 37.071C183.935 36.3153 184.08 35.4432 184.08 34.4545C184.08 33.4773 183.938 32.6222 183.654 31.8892C183.37 31.1506 182.95 30.5767 182.393 30.1676C181.836 29.7528 181.148 29.5455 180.33 29.5455C179.478 29.5455 178.768 29.7642 178.2 30.2017C177.637 30.6335 177.214 31.2216 176.93 31.9659C176.651 32.7045 176.512 33.5341 176.512 34.4545C176.512 35.3864 176.654 36.233 176.938 36.9943C177.228 37.75 177.654 38.3523 178.217 38.8011C178.785 39.2443 179.489 39.4659 180.33 39.4659ZM195.509 41.2727C194.248 41.2727 193.16 40.9943 192.245 40.4375C191.336 39.875 190.634 39.0909 190.14 38.0852C189.651 37.0739 189.407 35.8977 189.407 34.5568C189.407 33.2159 189.651 32.0341 190.14 31.0114C190.634 29.983 191.322 29.1818 192.202 28.608C193.089 28.0284 194.123 27.7386 195.305 27.7386C195.987 27.7386 196.66 27.8523 197.325 28.0795C197.989 28.3068 198.594 28.6761 199.14 29.1875C199.685 29.6932 200.12 30.3636 200.444 31.1989C200.768 32.0341 200.93 33.0625 200.93 34.2841V35.1364H190.839V33.3977H198.884C198.884 32.6591 198.737 32 198.441 31.4205C198.151 30.8409 197.737 30.3835 197.197 30.0483C196.663 29.7131 196.032 29.5455 195.305 29.5455C194.504 29.5455 193.81 29.7443 193.225 30.142C192.646 30.5341 192.2 31.0455 191.887 31.6761C191.575 32.3068 191.418 32.983 191.418 33.7045V34.8636C191.418 35.8523 191.589 36.6903 191.93 37.3778C192.276 38.0597 192.756 38.5795 193.37 38.9375C193.984 39.2898 194.697 39.4659 195.509 39.4659C196.038 39.4659 196.515 39.392 196.941 39.2443C197.373 39.0909 197.745 38.8636 198.058 38.5625C198.37 38.2557 198.612 37.875 198.782 37.4205L200.725 37.9659C200.521 38.625 200.177 39.2045 199.694 39.7045C199.211 40.1989 198.614 40.5852 197.904 40.8636C197.194 41.1364 196.396 41.2727 195.509 41.2727ZM210.739 41V27.9091H212.683V29.9545H212.853C213.126 29.2557 213.566 28.7131 214.174 28.3267C214.782 27.9347 215.512 27.7386 216.364 27.7386C217.228 27.7386 217.947 27.9347 218.521 28.3267C219.1 28.7131 219.552 29.2557 219.876 29.9545H220.012C220.347 29.2784 220.85 28.7415 221.521 28.3438C222.191 27.9403 222.995 27.7386 223.933 27.7386C225.103 27.7386 226.06 28.1051 226.805 28.8381C227.549 29.5653 227.921 30.6989 227.921 32.2386V41H225.91V32.2386C225.91 31.2727 225.646 30.5824 225.117 30.1676C224.589 29.7528 223.967 29.5455 223.251 29.5455C222.33 29.5455 221.617 29.8239 221.112 30.3807C220.606 30.9318 220.353 31.6307 220.353 32.4773V41H218.308V32.0341C218.308 31.2898 218.066 30.6903 217.583 30.2358C217.1 29.7756 216.478 29.5455 215.717 29.5455C215.194 29.5455 214.705 29.6847 214.251 29.9631C213.802 30.2415 213.438 30.6278 213.16 31.1222C212.887 31.6108 212.751 32.1761 212.751 32.8182V41H210.739ZM236.917 41.2727C235.735 41.2727 234.698 40.9915 233.806 40.429C232.92 39.8665 232.227 39.0795 231.727 38.0682C231.232 37.0568 230.985 35.875 230.985 34.5227C230.985 33.1591 231.232 31.9687 231.727 30.9517C232.227 29.9347 232.92 29.1449 233.806 28.5824C234.698 28.0199 235.735 27.7386 236.917 27.7386C238.099 27.7386 239.133 28.0199 240.019 28.5824C240.911 29.1449 241.604 29.9347 242.099 30.9517C242.599 31.9687 242.849 33.1591 242.849 34.5227C242.849 35.875 242.599 37.0568 242.099 38.0682C241.604 39.0795 240.911 39.8665 240.019 40.429C239.133 40.9915 238.099 41.2727 236.917 41.2727ZM236.917 39.4659C237.815 39.4659 238.553 39.2358 239.133 38.7756C239.712 38.3153 240.141 37.7102 240.42 36.9602C240.698 36.2102 240.837 35.3977 240.837 34.5227C240.837 33.6477 240.698 32.8324 240.42 32.0767C240.141 31.321 239.712 30.7102 239.133 30.2443C238.553 29.7784 237.815 29.5455 236.917 29.5455C236.019 29.5455 235.281 29.7784 234.701 30.2443C234.121 30.7102 233.692 31.321 233.414 32.0767C233.136 32.8324 232.996 33.6477 232.996 34.5227C232.996 35.3977 233.136 36.2102 233.414 36.9602C233.692 37.7102 234.121 38.3153 234.701 38.7756C235.281 39.2358 236.019 39.4659 236.917 39.4659ZM245.919 41V27.9091H247.862V29.8864H247.999C248.237 29.2386 248.669 28.7131 249.294 28.3097C249.919 27.9062 250.624 27.7045 251.408 27.7045C251.555 27.7045 251.74 27.7074 251.962 27.7131C252.183 27.7187 252.351 27.7273 252.464 27.7386V29.7841C252.396 29.767 252.24 29.7415 251.996 29.7074C251.757 29.6676 251.504 29.6477 251.237 29.6477C250.601 29.6477 250.033 29.7812 249.533 30.0483C249.038 30.3097 248.646 30.6733 248.357 31.1392C248.072 31.5994 247.93 32.125 247.93 32.7159V41H245.919ZM261.362 27.9091V29.6136H254.578V27.9091H261.362ZM256.555 24.7727H258.567V37.25C258.567 37.8182 258.649 38.2443 258.814 38.5284C258.984 38.8068 259.2 38.9943 259.462 39.0909C259.729 39.1818 260.01 39.2273 260.305 39.2273C260.527 39.2273 260.709 39.2159 260.851 39.1932C260.993 39.1648 261.107 39.142 261.192 39.125L261.601 40.9318C261.464 40.983 261.274 41.0341 261.03 41.0852C260.786 41.142 260.476 41.1705 260.101 41.1705C259.533 41.1705 258.976 41.0483 258.43 40.804C257.891 40.5597 257.442 40.1875 257.084 39.6875C256.732 39.1875 256.555 38.5568 256.555 37.7955V24.7727ZM269.736 41.2727C268.474 41.2727 267.386 40.9943 266.472 40.4375C265.562 39.875 264.861 39.0909 264.366 38.0852C263.878 37.0739 263.634 35.8977 263.634 34.5568C263.634 33.2159 263.878 32.0341 264.366 31.0114C264.861 29.983 265.548 29.1818 266.429 28.608C267.315 28.0284 268.349 27.7386 269.531 27.7386C270.213 27.7386 270.886 27.8523 271.551 28.0795C272.216 28.3068 272.821 28.6761 273.366 29.1875C273.912 29.6932 274.347 30.3636 274.67 31.1989C274.994 32.0341 275.156 33.0625 275.156 34.2841V35.1364H265.065V33.3977H273.111C273.111 32.6591 272.963 32 272.668 31.4205C272.378 30.8409 271.963 30.3835 271.423 30.0483C270.889 29.7131 270.259 29.5455 269.531 29.5455C268.73 29.5455 268.037 29.7443 267.452 30.142C266.872 30.5341 266.426 31.0455 266.114 31.6761C265.801 32.3068 265.645 32.983 265.645 33.7045V34.8636C265.645 35.8523 265.815 36.6903 266.156 37.3778C266.503 38.0597 266.983 38.5795 267.597 38.9375C268.21 39.2898 268.923 39.4659 269.736 39.4659C270.264 39.4659 270.741 39.392 271.168 39.2443C271.599 39.0909 271.972 38.8636 272.284 38.5625C272.597 38.2557 272.838 37.875 273.009 37.4205L274.952 37.9659C274.747 38.625 274.403 39.2045 273.92 39.7045C273.438 40.1989 272.841 40.5852 272.131 40.8636C271.42 41.1364 270.622 41.2727 269.736 41.2727ZM287.489 30.8409L285.682 31.3523C285.568 31.0511 285.401 30.7585 285.179 30.4744C284.963 30.1847 284.668 29.946 284.293 29.7585C283.918 29.571 283.438 29.4773 282.852 29.4773C282.051 29.4773 281.384 29.6619 280.849 30.0312C280.321 30.3949 280.057 30.858 280.057 31.4205C280.057 31.9205 280.239 32.3153 280.602 32.6051C280.966 32.8949 281.534 33.1364 282.307 33.3295L284.25 33.8068C285.42 34.0909 286.293 34.5256 286.866 35.1108C287.44 35.6903 287.727 36.4375 287.727 37.3523C287.727 38.1023 287.511 38.7727 287.08 39.3636C286.653 39.9545 286.057 40.4205 285.29 40.7614C284.523 41.1023 283.631 41.2727 282.614 41.2727C281.278 41.2727 280.173 40.983 279.298 40.4034C278.423 39.8239 277.869 38.9773 277.636 37.8636L279.545 37.3864C279.727 38.0909 280.071 38.6193 280.577 38.9716C281.088 39.3239 281.756 39.5 282.58 39.5C283.517 39.5 284.261 39.3011 284.812 38.9034C285.369 38.5 285.648 38.017 285.648 37.4545C285.648 37 285.489 36.6193 285.17 36.3125C284.852 36 284.364 35.767 283.705 35.6136L281.523 35.1023C280.324 34.8182 279.443 34.3778 278.881 33.7812C278.324 33.179 278.045 32.4261 278.045 31.5227C278.045 30.7841 278.253 30.1307 278.668 29.5625C279.088 28.9943 279.659 28.5483 280.381 28.2244C281.108 27.9006 281.932 27.7386 282.852 27.7386C284.148 27.7386 285.165 28.0227 285.903 28.5909C286.648 29.1591 287.176 29.9091 287.489 30.8409ZM302.994 41.2727C301.732 41.2727 300.644 40.9943 299.729 40.4375C298.82 39.875 298.119 39.0909 297.624 38.0852C297.136 37.0739 296.891 35.8977 296.891 34.5568C296.891 33.2159 297.136 32.0341 297.624 31.0114C298.119 29.983 298.806 29.1818 299.687 28.608C300.573 28.0284 301.607 27.7386 302.789 27.7386C303.471 27.7386 304.144 27.8523 304.809 28.0795C305.474 28.3068 306.079 28.6761 306.624 29.1875C307.17 29.6932 307.604 30.3636 307.928 31.1989C308.252 32.0341 308.414 33.0625 308.414 34.2841V35.1364H298.323V33.3977H306.369C306.369 32.6591 306.221 32 305.925 31.4205C305.636 30.8409 305.221 30.3835 304.681 30.0483C304.147 29.7131 303.516 29.5455 302.789 29.5455C301.988 29.5455 301.295 29.7443 300.71 30.142C300.13 30.5341 299.684 31.0455 299.371 31.6761C299.059 32.3068 298.903 32.983 298.903 33.7045V34.8636C298.903 35.8523 299.073 36.6903 299.414 37.3778C299.761 38.0597 300.241 38.5795 300.854 38.9375C301.468 39.2898 302.181 39.4659 302.994 39.4659C303.522 39.4659 303.999 39.392 304.425 39.2443C304.857 39.0909 305.229 38.8636 305.542 38.5625C305.854 38.2557 306.096 37.875 306.266 37.4205L308.21 37.9659C308.005 38.625 307.661 39.2045 307.178 39.7045C306.695 40.1989 306.099 40.5852 305.388 40.8636C304.678 41.1364 303.88 41.2727 302.994 41.2727ZM311.474 41V27.9091H313.417V29.9545H313.587C313.86 29.2557 314.3 28.7131 314.908 28.3267C315.516 27.9347 316.246 27.7386 317.099 27.7386C317.962 27.7386 318.681 27.9347 319.255 28.3267C319.835 28.7131 320.286 29.2557 320.61 29.9545H320.746C321.082 29.2784 321.585 28.7415 322.255 28.3438C322.925 27.9403 323.729 27.7386 324.667 27.7386C325.837 27.7386 326.795 28.1051 327.539 28.8381C328.283 29.5653 328.656 30.6989 328.656 32.2386V41H326.644V32.2386C326.644 31.2727 326.38 30.5824 325.852 30.1676C325.323 29.7528 324.701 29.5455 323.985 29.5455C323.065 29.5455 322.352 29.8239 321.846 30.3807C321.34 30.9318 321.087 31.6307 321.087 32.4773V41H319.042V32.0341C319.042 31.2898 318.8 30.6903 318.317 30.2358C317.835 29.7756 317.212 29.5455 316.451 29.5455C315.928 29.5455 315.44 29.6847 314.985 29.9631C314.536 30.2415 314.173 30.6278 313.894 31.1222C313.621 31.6108 313.485 32.1761 313.485 32.8182V41H311.474ZM347.333 35.6477V27.9091H349.344V41H347.333V38.7841H347.197C346.89 39.4489 346.413 40.0142 345.765 40.4801C345.117 40.9403 344.299 41.1705 343.31 41.1705C342.492 41.1705 341.765 40.9915 341.129 40.6335C340.492 40.2699 339.992 39.7244 339.629 38.9972C339.265 38.2642 339.083 37.3409 339.083 36.2273V27.9091H341.094V36.0909C341.094 37.0455 341.362 37.8068 341.896 38.375C342.435 38.9432 343.123 39.2273 343.958 39.2273C344.458 39.2273 344.967 39.0994 345.484 38.8438C346.006 38.5881 346.444 38.196 346.796 37.6676C347.154 37.1392 347.333 36.4659 347.333 35.6477ZM353.028 41V27.9091H354.972V29.9545H355.142C355.415 29.2557 355.855 28.7131 356.463 28.3267C357.071 27.9347 357.801 27.7386 358.653 27.7386C359.517 27.7386 360.236 27.9347 360.81 28.3267C361.389 28.7131 361.841 29.2557 362.165 29.9545H362.301C362.636 29.2784 363.139 28.7415 363.81 28.3438C364.48 27.9403 365.284 27.7386 366.222 27.7386C367.392 27.7386 368.349 28.1051 369.094 28.8381C369.838 29.5653 370.21 30.6989 370.21 32.2386V41H368.199V32.2386C368.199 31.2727 367.935 30.5824 367.406 30.1676C366.878 29.7528 366.256 29.5455 365.54 29.5455C364.619 29.5455 363.906 29.8239 363.401 30.3807C362.895 30.9318 362.642 31.6307 362.642 32.4773V41H360.597V32.0341C360.597 31.2898 360.355 30.6903 359.872 30.2358C359.389 29.7756 358.767 29.5455 358.006 29.5455C357.483 29.5455 356.994 29.6847 356.54 29.9631C356.091 30.2415 355.727 30.6278 355.449 31.1222C355.176 31.6108 355.04 32.1761 355.04 32.8182V41H353.028ZM377.74 41.3068C376.911 41.3068 376.158 41.1506 375.482 40.8381C374.805 40.5199 374.268 40.0625 373.871 39.4659C373.473 38.8636 373.274 38.1364 373.274 37.2841C373.274 36.5341 373.422 35.9261 373.717 35.4602C374.013 34.9886 374.408 34.6193 374.902 34.3523C375.396 34.0852 375.942 33.8864 376.538 33.7557C377.141 33.6193 377.746 33.5114 378.354 33.4318C379.149 33.3295 379.794 33.2528 380.288 33.2017C380.788 33.1449 381.152 33.0511 381.379 32.9205C381.612 32.7898 381.729 32.5625 381.729 32.2386V32.1705C381.729 31.3295 381.499 30.6761 381.038 30.2102C380.584 29.7443 379.893 29.5114 378.967 29.5114C378.007 29.5114 377.254 29.7216 376.709 30.142C376.163 30.5625 375.78 31.0114 375.558 31.4886L373.649 30.8068C373.99 30.0114 374.445 29.392 375.013 28.9489C375.587 28.5 376.212 28.1875 376.888 28.0114C377.57 27.8295 378.24 27.7386 378.899 27.7386C379.32 27.7386 379.803 27.7898 380.348 27.892C380.899 27.9886 381.43 28.1903 381.942 28.4972C382.459 28.804 382.888 29.267 383.229 29.8864C383.57 30.5057 383.74 31.3352 383.74 32.375V41H381.729V39.2273H381.626C381.49 39.5114 381.263 39.8153 380.945 40.1392C380.626 40.4631 380.203 40.7386 379.675 40.9659C379.146 41.1932 378.501 41.3068 377.74 41.3068ZM378.047 39.5C378.842 39.5 379.513 39.3438 380.058 39.0312C380.609 38.7188 381.024 38.3153 381.303 37.821C381.587 37.3267 381.729 36.8068 381.729 36.2614V34.4205C381.643 34.5227 381.456 34.6165 381.166 34.7017C380.882 34.7812 380.553 34.8523 380.178 34.9148C379.808 34.9716 379.447 35.0227 379.095 35.0682C378.749 35.108 378.467 35.142 378.251 35.1705C377.729 35.2386 377.24 35.3494 376.786 35.5028C376.337 35.6506 375.973 35.875 375.695 36.1761C375.422 36.4716 375.286 36.875 375.286 37.3864C375.286 38.0852 375.544 38.6136 376.061 38.9716C376.584 39.3239 377.246 39.5 378.047 39.5ZM406.229 41.2727C405.002 41.2727 403.945 40.983 403.059 40.4034C402.173 39.8239 401.491 39.0256 401.013 38.0085C400.536 36.9915 400.298 35.8295 400.298 34.5227C400.298 33.1932 400.542 32.0199 401.031 31.0028C401.525 29.9801 402.212 29.1818 403.093 28.608C403.979 28.0284 405.013 27.7386 406.195 27.7386C407.116 27.7386 407.945 27.9091 408.684 28.25C409.423 28.5909 410.028 29.0682 410.499 29.6818C410.971 30.2955 411.263 31.0114 411.377 31.8295H409.366C409.212 31.233 408.871 30.7045 408.343 30.2443C407.82 29.7784 407.116 29.5455 406.229 29.5455C405.445 29.5455 404.758 29.75 404.167 30.1591C403.582 30.5625 403.124 31.1335 402.795 31.8722C402.471 32.6051 402.309 33.4659 402.309 34.4545C402.309 35.4659 402.468 36.3466 402.786 37.0966C403.11 37.8466 403.565 38.429 404.15 38.8438C404.741 39.2585 405.434 39.4659 406.229 39.4659C406.752 39.4659 407.227 39.375 407.653 39.1932C408.079 39.0114 408.44 38.75 408.735 38.4091C409.031 38.0682 409.241 37.6591 409.366 37.1818H411.377C411.263 37.9545 410.982 38.6506 410.533 39.2699C410.09 39.8835 409.502 40.3722 408.769 40.7358C408.042 41.0938 407.195 41.2727 406.229 41.2727ZM414.317 41V27.9091H416.329V41H414.317ZM415.34 25.7273C414.948 25.7273 414.61 25.5938 414.326 25.3267C414.048 25.0597 413.908 24.7386 413.908 24.3636C413.908 23.9886 414.048 23.6676 414.326 23.4006C414.61 23.1335 414.948 23 415.34 23C415.732 23 416.067 23.1335 416.346 23.4006C416.63 23.6676 416.772 23.9886 416.772 24.3636C416.772 24.7386 416.63 25.0597 416.346 25.3267C416.067 25.5938 415.732 25.7273 415.34 25.7273ZM420.013 41V27.9091H421.956V29.8864H422.092C422.331 29.2386 422.763 28.7131 423.388 28.3097C424.013 27.9062 424.717 27.7045 425.501 27.7045C425.649 27.7045 425.834 27.7074 426.055 27.7131C426.277 27.7187 426.445 27.7273 426.558 27.7386V29.7841C426.49 29.767 426.334 29.7415 426.089 29.7074C425.851 29.6676 425.598 29.6477 425.331 29.6477C424.695 29.6477 424.126 29.7812 423.626 30.0483C423.132 30.3097 422.74 30.6733 422.45 31.1392C422.166 31.5994 422.024 32.125 422.024 32.7159V41H420.013ZM437.192 35.6477V27.9091H439.204V41H437.192V38.7841H437.056C436.749 39.4489 436.272 40.0142 435.624 40.4801C434.977 40.9403 434.158 41.1705 433.17 41.1705C432.352 41.1705 431.624 40.9915 430.988 40.6335C430.352 40.2699 429.852 39.7244 429.488 38.9972C429.124 38.2642 428.942 37.3409 428.942 36.2273V27.9091H430.954V36.0909C430.954 37.0455 431.221 37.8068 431.755 38.375C432.295 38.9432 432.982 39.2273 433.817 39.2273C434.317 39.2273 434.826 39.0994 435.343 38.8438C435.866 38.5881 436.303 38.196 436.656 37.6676C437.013 37.1392 437.192 36.4659 437.192 35.6477ZM442.888 41V27.9091H444.831V29.8864H444.967C445.206 29.2386 445.638 28.7131 446.263 28.3097C446.888 27.9062 447.592 27.7045 448.376 27.7045C448.524 27.7045 448.709 27.7074 448.93 27.7131C449.152 27.7187 449.32 27.7273 449.433 27.7386V29.7841C449.365 29.767 449.209 29.7415 448.964 29.7074C448.726 29.6676 448.473 29.6477 448.206 29.6477C447.57 29.6477 447.001 29.7812 446.501 30.0483C446.007 30.3097 445.615 30.6733 445.325 31.1392C445.041 31.5994 444.899 32.125 444.899 32.7159V41H442.888ZM456.703 46.1818C455.732 46.1818 454.896 46.0568 454.197 45.8068C453.499 45.5625 452.916 45.2386 452.45 44.8352C451.99 44.4375 451.624 44.0114 451.351 43.5568L452.953 42.4318C453.135 42.6705 453.365 42.9432 453.643 43.25C453.922 43.5625 454.303 43.8324 454.786 44.0597C455.274 44.2926 455.913 44.4091 456.703 44.4091C457.76 44.4091 458.632 44.1534 459.32 43.642C460.007 43.1307 460.351 42.3295 460.351 41.2386V38.5795H460.18C460.033 38.8182 459.822 39.1136 459.55 39.4659C459.283 39.8125 458.896 40.1222 458.391 40.3949C457.891 40.6619 457.214 40.7955 456.362 40.7955C455.305 40.7955 454.357 40.5455 453.516 40.0455C452.68 39.5455 452.018 38.8182 451.53 37.8636C451.047 36.9091 450.805 35.75 450.805 34.3864C450.805 33.0455 451.041 31.8778 451.513 30.8835C451.984 29.8835 452.641 29.1108 453.482 28.5653C454.322 28.0142 455.294 27.7386 456.396 27.7386C457.249 27.7386 457.925 27.8807 458.425 28.1648C458.93 28.4432 459.317 28.7614 459.584 29.1193C459.857 29.4716 460.067 29.7614 460.214 29.9886H460.419V27.9091H462.362V41.375C462.362 42.5 462.107 43.4148 461.595 44.1193C461.089 44.8295 460.408 45.3494 459.55 45.679C458.697 46.0142 457.749 46.1818 456.703 46.1818ZM456.635 38.9886C457.442 38.9886 458.124 38.804 458.68 38.4347C459.237 38.0653 459.661 37.5341 459.95 36.8409C460.24 36.1477 460.385 35.3182 460.385 34.3523C460.385 33.4091 460.243 32.5767 459.959 31.8551C459.675 31.1335 459.254 30.5682 458.697 30.1591C458.141 29.75 457.453 29.5455 456.635 29.5455C455.783 29.5455 455.072 29.7614 454.504 30.1932C453.942 30.625 453.518 31.2045 453.234 31.9318C452.956 32.6591 452.817 33.4659 452.817 34.3523C452.817 35.2614 452.959 36.0653 453.243 36.7642C453.533 37.4574 453.959 38.0028 454.521 38.4006C455.089 38.7926 455.794 38.9886 456.635 38.9886ZM466.044 41V27.9091H468.055V41H466.044ZM467.067 25.7273C466.675 25.7273 466.337 25.5938 466.053 25.3267C465.774 25.0597 465.635 24.7386 465.635 24.3636C465.635 23.9886 465.774 23.6676 466.053 23.4006C466.337 23.1335 466.675 23 467.067 23C467.459 23 467.794 23.1335 468.072 23.4006C468.357 23.6676 468.499 23.9886 468.499 24.3636C468.499 24.7386 468.357 25.0597 468.072 25.3267C467.794 25.5938 467.459 25.7273 467.067 25.7273ZM475.592 41.3068C474.762 41.3068 474.009 41.1506 473.333 40.8381C472.657 40.5199 472.12 40.0625 471.722 39.4659C471.325 38.8636 471.126 38.1364 471.126 37.2841C471.126 36.5341 471.273 35.9261 471.569 35.4602C471.864 34.9886 472.259 34.6193 472.754 34.3523C473.248 34.0852 473.793 33.8864 474.39 33.7557C474.992 33.6193 475.597 33.5114 476.205 33.4318C477.001 33.3295 477.646 33.2528 478.14 33.2017C478.64 33.1449 479.004 33.0511 479.231 32.9205C479.464 32.7898 479.58 32.5625 479.58 32.2386V32.1705C479.58 31.3295 479.35 30.6761 478.89 30.2102C478.435 29.7443 477.745 29.5114 476.819 29.5114C475.859 29.5114 475.106 29.7216 474.56 30.142C474.015 30.5625 473.631 31.0114 473.41 31.4886L471.501 30.8068C471.842 30.0114 472.296 29.392 472.864 28.9489C473.438 28.5 474.063 28.1875 474.739 28.0114C475.421 27.8295 476.092 27.7386 476.751 27.7386C477.171 27.7386 477.654 27.7898 478.2 27.892C478.751 27.9886 479.282 28.1903 479.793 28.4972C480.31 28.804 480.739 29.267 481.08 29.8864C481.421 30.5057 481.592 31.3352 481.592 32.375V41H479.58V39.2273H479.478C479.342 39.5114 479.114 39.8153 478.796 40.1392C478.478 40.4631 478.055 40.7386 477.526 40.9659C476.998 41.1932 476.353 41.3068 475.592 41.3068ZM475.898 39.5C476.694 39.5 477.364 39.3438 477.91 39.0312C478.461 38.7188 478.876 38.3153 479.154 37.821C479.438 37.3267 479.58 36.8068 479.58 36.2614V34.4205C479.495 34.5227 479.308 34.6165 479.018 34.7017C478.734 34.7812 478.404 34.8523 478.029 34.9148C477.66 34.9716 477.299 35.0227 476.947 35.0682C476.6 35.108 476.319 35.142 476.103 35.1705C475.58 35.2386 475.092 35.3494 474.637 35.5028C474.188 35.6506 473.825 35.875 473.546 36.1761C473.273 36.4716 473.137 36.875 473.137 37.3864C473.137 38.0852 473.396 38.6136 473.913 38.9716C474.435 39.3239 475.097 39.5 475.898 39.5ZM497.501 41.2727C496.24 41.2727 495.152 40.9943 494.237 40.4375C493.328 39.875 492.626 39.0909 492.132 38.0852C491.643 37.0739 491.399 35.8977 491.399 34.5568C491.399 33.2159 491.643 32.0341 492.132 31.0114C492.626 29.983 493.314 29.1818 494.195 28.608C495.081 28.0284 496.115 27.7386 497.297 27.7386C497.979 27.7386 498.652 27.8523 499.317 28.0795C499.982 28.3068 500.587 28.6761 501.132 29.1875C501.678 29.6932 502.112 30.3636 502.436 31.1989C502.76 32.0341 502.922 33.0625 502.922 34.2841V35.1364H492.831V33.3977H500.876C500.876 32.6591 500.729 32 500.433 31.4205C500.143 30.8409 499.729 30.3835 499.189 30.0483C498.655 29.7131 498.024 29.5455 497.297 29.5455C496.496 29.5455 495.803 29.7443 495.217 30.142C494.638 30.5341 494.192 31.0455 493.879 31.6761C493.567 32.3068 493.411 32.983 493.411 33.7045V34.8636C493.411 35.8523 493.581 36.6903 493.922 37.3778C494.268 38.0597 494.749 38.5795 495.362 38.9375C495.976 39.2898 496.689 39.4659 497.501 39.4659C498.03 39.4659 498.507 39.392 498.933 39.2443C499.365 39.0909 499.737 38.8636 500.05 38.5625C500.362 38.2557 500.604 37.875 500.774 37.4205L502.717 37.9659C502.513 38.625 502.169 39.2045 501.686 39.7045C501.203 40.1989 500.607 40.5852 499.896 40.8636C499.186 41.1364 498.388 41.2727 497.501 41.2727ZM496.274 26.1364L498.354 22.1818H500.706L498.047 26.1364H496.274ZM517.675 41.2727C516.584 41.2727 515.621 40.9972 514.786 40.446C513.95 39.8892 513.297 39.1051 512.825 38.0938C512.354 37.0767 512.118 35.875 512.118 34.4886C512.118 33.1136 512.354 31.9205 512.825 30.9091C513.297 29.8977 513.953 29.1165 514.794 28.5653C515.635 28.0142 516.607 27.7386 517.709 27.7386C518.561 27.7386 519.234 27.8807 519.729 28.1648C520.229 28.4432 520.609 28.7614 520.871 29.1193C521.138 29.4716 521.345 29.7614 521.493 29.9886H521.663V23.5455H523.675V41H521.732V38.9886H521.493C521.345 39.2273 521.135 39.5284 520.862 39.892C520.589 40.25 520.2 40.571 519.695 40.8551C519.189 41.1335 518.516 41.2727 517.675 41.2727ZM517.947 39.4659C518.754 39.4659 519.436 39.2557 519.993 38.8352C520.55 38.4091 520.973 37.821 521.263 37.071C521.553 36.3153 521.697 35.4432 521.697 34.4545C521.697 33.4773 521.555 32.6222 521.271 31.8892C520.987 31.1506 520.567 30.5767 520.01 30.1676C519.453 29.7528 518.766 29.5455 517.947 29.5455C517.095 29.5455 516.385 29.7642 515.817 30.2017C515.254 30.6335 514.831 31.2216 514.547 31.9659C514.268 32.7045 514.129 33.5341 514.129 34.4545C514.129 35.3864 514.271 36.233 514.555 36.9943C514.845 37.75 515.271 38.3523 515.834 38.8011C516.402 39.2443 517.107 39.4659 517.947 39.4659ZM533.126 41.2727C531.865 41.2727 530.777 40.9943 529.862 40.4375C528.953 39.875 528.251 39.0909 527.757 38.0852C527.268 37.0739 527.024 35.8977 527.024 34.5568C527.024 33.2159 527.268 32.0341 527.757 31.0114C528.251 29.983 528.939 29.1818 529.82 28.608C530.706 28.0284 531.74 27.7386 532.922 27.7386C533.604 27.7386 534.277 27.8523 534.942 28.0795C535.607 28.3068 536.212 28.6761 536.757 29.1875C537.303 29.6932 537.737 30.3636 538.061 31.1989C538.385 32.0341 538.547 33.0625 538.547 34.2841V35.1364H528.456V33.3977H536.501C536.501 32.6591 536.354 32 536.058 31.4205C535.768 30.8409 535.354 30.3835 534.814 30.0483C534.28 29.7131 533.649 29.5455 532.922 29.5455C532.121 29.5455 531.428 29.7443 530.842 30.142C530.263 30.5341 529.817 31.0455 529.504 31.6761C529.192 32.3068 529.036 32.983 529.036 33.7045V34.8636C529.036 35.8523 529.206 36.6903 529.547 37.3778C529.893 38.0597 530.374 38.5795 530.987 38.9375C531.601 39.2898 532.314 39.4659 533.126 39.4659C533.655 39.4659 534.132 39.392 534.558 39.2443C534.99 39.0909 535.362 38.8636 535.675 38.5625C535.987 38.2557 536.229 37.875 536.399 37.4205L538.342 37.9659C538.138 38.625 537.794 39.2045 537.311 39.7045C536.828 40.1989 536.232 40.5852 535.521 40.8636C534.811 41.1364 534.013 41.2727 533.126 41.2727ZM25.7045 70.2386C24.5795 70.2386 23.5767 70.0455 22.696 69.6591C21.821 69.2727 21.125 68.7358 20.608 68.0483C20.0966 67.3551 19.8182 66.5511 19.7727 65.6364H21.9205C21.9659 66.1989 22.1591 66.6847 22.5 67.0938C22.8409 67.4972 23.2869 67.8097 23.8381 68.0312C24.3892 68.2528 25 68.3636 25.6705 68.3636C26.4205 68.3636 27.0852 68.233 27.6648 67.9716C28.2443 67.7102 28.6989 67.3466 29.0284 66.8807C29.358 66.4148 29.5227 65.875 29.5227 65.2614C29.5227 64.6193 29.3636 64.054 29.0455 63.5653C28.7273 63.071 28.2614 62.6847 27.6477 62.4062C27.0341 62.1278 26.2841 61.9886 25.3977 61.9886H24V60.1136H25.3977C26.0909 60.1136 26.6989 59.9886 27.2216 59.7386C27.75 59.4886 28.1619 59.1364 28.4574 58.6818C28.7585 58.2273 28.9091 57.6932 28.9091 57.0795C28.9091 56.4886 28.7784 55.9744 28.517 55.5369C28.2557 55.0994 27.8864 54.7585 27.4091 54.5142C26.9375 54.2699 26.3807 54.1477 25.7386 54.1477C25.1364 54.1477 24.5682 54.2585 24.0341 54.4801C23.5057 54.696 23.0739 55.0114 22.7386 55.4261C22.4034 55.8352 22.2216 56.3295 22.1932 56.9091H20.1477C20.1818 55.9943 20.4574 55.1932 20.9744 54.5057C21.4915 53.8125 22.1676 53.2727 23.0028 52.8864C23.8438 52.5 24.767 52.3068 25.7727 52.3068C26.8523 52.3068 27.7784 52.5256 28.5511 52.9631C29.3239 53.3949 29.9176 53.9659 30.3324 54.6761C30.7472 55.3864 30.9545 56.1534 30.9545 56.9773C30.9545 57.9602 30.696 58.7983 30.179 59.4915C29.6676 60.1847 28.9716 60.6648 28.0909 60.9318V61.0682C29.1932 61.25 30.054 61.7187 30.6733 62.4744C31.2926 63.2244 31.6023 64.1534 31.6023 65.2614C31.6023 66.2102 31.3438 67.0625 30.8267 67.8182C30.3153 68.5682 29.6165 69.1591 28.7301 69.5909C27.8438 70.0227 26.8352 70.2386 25.7045 70.2386ZM40.7812 70.2386C39.4972 70.2386 38.4034 69.8892 37.5 69.1903C36.5966 68.4858 35.9063 67.4659 35.429 66.1307C34.9517 64.7898 34.7131 63.1705 34.7131 61.2727C34.7131 59.3864 34.9517 57.7756 35.429 56.4403C35.9119 55.0994 36.6051 54.0767 37.5085 53.3722C38.4176 52.6619 39.5085 52.3068 40.7812 52.3068C42.054 52.3068 43.142 52.6619 44.0455 53.3722C44.9545 54.0767 45.6477 55.0994 46.125 56.4403C46.608 57.7756 46.8494 59.3864 46.8494 61.2727C46.8494 63.1705 46.6108 64.7898 46.1335 66.1307C45.6562 67.4659 44.9659 68.4858 44.0625 69.1903C43.1591 69.8892 42.0653 70.2386 40.7812 70.2386ZM40.7812 68.3636C42.054 68.3636 43.0426 67.75 43.7472 66.5227C44.4517 65.2955 44.804 63.5455 44.804 61.2727C44.804 59.7614 44.642 58.4744 44.3182 57.4119C44 56.3494 43.5398 55.5398 42.9375 54.983C42.3409 54.4261 41.6222 54.1477 40.7812 54.1477C39.5199 54.1477 38.5341 54.7699 37.8239 56.0142C37.1136 57.2528 36.7585 59.0057 36.7585 61.2727C36.7585 62.7841 36.9176 64.0682 37.2358 65.125C37.554 66.1818 38.0114 66.9858 38.608 67.5369C39.2102 68.0881 39.9347 68.3636 40.7812 68.3636ZM55.7812 70.2386C54.4972 70.2386 53.4034 69.8892 52.5 69.1903C51.5966 68.4858 50.9063 67.4659 50.429 66.1307C49.9517 64.7898 49.7131 63.1705 49.7131 61.2727C49.7131 59.3864 49.9517 57.7756 50.429 56.4403C50.9119 55.0994 51.6051 54.0767 52.5085 53.3722C53.4176 52.6619 54.5085 52.3068 55.7812 52.3068C57.054 52.3068 58.142 52.6619 59.0455 53.3722C59.9545 54.0767 60.6477 55.0994 61.125 56.4403C61.608 57.7756 61.8494 59.3864 61.8494 61.2727C61.8494 63.1705 61.6108 64.7898 61.1335 66.1307C60.6562 67.4659 59.9659 68.4858 59.0625 69.1903C58.1591 69.8892 57.0653 70.2386 55.7812 70.2386ZM55.7812 68.3636C57.054 68.3636 58.0426 67.75 58.7472 66.5227C59.4517 65.2955 59.804 63.5455 59.804 61.2727C59.804 59.7614 59.642 58.4744 59.3182 57.4119C59 56.3494 58.5398 55.5398 57.9375 54.983C57.3409 54.4261 56.6222 54.1477 55.7812 54.1477C54.5199 54.1477 53.5341 54.7699 52.8239 56.0142C52.1136 57.2528 51.7585 59.0057 51.7585 61.2727C51.7585 62.7841 51.9176 64.0682 52.2358 65.125C52.554 66.1818 53.0114 66.9858 53.608 67.5369C54.2102 68.0881 54.9347 68.3636 55.7812 68.3636ZM73.9858 66.7273V65.8068C73.9858 65.1705 74.1165 64.5881 74.3778 64.0597C74.6449 63.5256 75.0313 63.0994 75.5369 62.7812C76.0483 62.4574 76.6676 62.2955 77.3949 62.2955C78.1335 62.2955 78.7528 62.4574 79.2528 62.7812C79.7528 63.0994 80.1307 63.5256 80.3864 64.0597C80.642 64.5881 80.7699 65.1705 80.7699 65.8068V66.7273C80.7699 67.3636 80.6392 67.9489 80.3778 68.483C80.1222 69.0114 79.7415 69.4375 79.2358 69.7614C78.7358 70.0795 78.1222 70.2386 77.3949 70.2386C76.6563 70.2386 76.0341 70.0795 75.5284 69.7614C75.0227 69.4375 74.6392 69.0114 74.3778 68.483C74.1165 67.9489 73.9858 67.3636 73.9858 66.7273ZM75.7244 65.8068V66.7273C75.7244 67.2557 75.8494 67.7301 76.0994 68.1506C76.3494 68.5653 76.7813 68.7727 77.3949 68.7727C77.9915 68.7727 78.4119 68.5653 78.6562 68.1506C78.9062 67.7301 79.0312 67.2557 79.0312 66.7273V65.8068C79.0312 65.2784 78.9119 64.8068 78.6733 64.392C78.4347 63.9716 78.0085 63.7614 77.3949 63.7614C76.7983 63.7614 76.3693 63.9716 76.108 64.392C75.8523 64.8068 75.7244 65.2784 75.7244 65.8068ZM65.2926 56.7386V55.8182C65.2926 55.1818 65.4233 54.5994 65.6847 54.071C65.9517 53.5369 66.3381 53.1108 66.8438 52.7926C67.3551 52.4687 67.9744 52.3068 68.7017 52.3068C69.4403 52.3068 70.0597 52.4687 70.5597 52.7926C71.0597 53.1108 71.4375 53.5369 71.6932 54.071C71.9489 54.5994 72.0767 55.1818 72.0767 55.8182V56.7386C72.0767 57.375 71.946 57.9602 71.6847 58.4943C71.429 59.0227 71.0483 59.4489 70.5426 59.7727C70.0426 60.0909 69.429 60.25 68.7017 60.25C67.9631 60.25 67.3409 60.0909 66.8352 59.7727C66.3295 59.4489 65.946 59.0227 65.6847 58.4943C65.4233 57.9602 65.2926 57.375 65.2926 56.7386ZM67.0312 55.8182V56.7386C67.0312 57.267 67.1562 57.7415 67.4062 58.1619C67.6562 58.5767 68.0881 58.7841 68.7017 58.7841C69.2983 58.7841 69.7188 58.5767 69.9631 58.1619C70.2131 57.7415 70.3381 57.267 70.3381 56.7386V55.8182C70.3381 55.2898 70.2188 54.8182 69.9801 54.4034C69.7415 53.983 69.3153 53.7727 68.7017 53.7727C68.1051 53.7727 67.6761 53.983 67.4148 54.4034C67.1591 54.8182 67.0312 55.2898 67.0312 55.8182ZM65.9403 70L77.9403 52.5455H79.8835L67.8835 70H65.9403ZM87.6222 67.6136L87.4858 68.5341C87.3892 69.1818 87.2415 69.875 87.0426 70.6136C86.8494 71.3523 86.6477 72.0483 86.4375 72.7017C86.2273 73.3551 86.054 73.875 85.9176 74.2614H84.3835C84.4574 73.8977 84.554 73.4176 84.6733 72.821C84.7926 72.2244 84.9119 71.5568 85.0312 70.8182C85.1562 70.0852 85.2585 69.3352 85.3381 68.5682L85.4403 67.6136H87.6222ZM107.031 74.9091V67.9886H106.86C106.712 68.2273 106.502 68.5284 106.229 68.892C105.957 69.25 105.567 69.571 105.062 69.8551C104.556 70.1335 103.883 70.2727 103.042 70.2727C101.951 70.2727 100.988 69.9972 100.153 69.446C99.3175 68.8892 98.6641 68.1051 98.1925 67.0938C97.7209 66.0767 97.4851 64.875 97.4851 63.4886C97.4851 62.1136 97.7209 60.9205 98.1925 59.9091C98.6641 58.8977 99.3203 58.1165 100.161 57.5653C101.002 57.0142 101.974 56.7386 103.076 56.7386C103.928 56.7386 104.602 56.8807 105.096 57.1648C105.596 57.4432 105.977 57.7614 106.238 58.1193C106.505 58.4716 106.712 58.7614 106.86 58.9886H107.099V56.9091H109.042V74.9091H107.031ZM103.315 68.4659C104.121 68.4659 104.803 68.2557 105.36 67.8352C105.917 67.4091 106.34 66.821 106.63 66.071C106.92 65.3153 107.065 64.4432 107.065 63.4545C107.065 62.4773 106.923 61.6222 106.638 60.8892C106.354 60.1506 105.934 59.5767 105.377 59.1676C104.82 58.7528 104.133 58.5455 103.315 58.5455C102.462 58.5455 101.752 58.7642 101.184 59.2017C100.621 59.6335 100.198 60.2216 99.9141 60.9659C99.6357 61.7045 99.4964 62.5341 99.4964 63.4545C99.4964 64.3864 99.6385 65.233 99.9226 65.9943C100.212 66.75 100.638 67.3523 101.201 67.8011C101.769 68.2443 102.474 68.4659 103.315 68.4659ZM120.974 64.6477V56.9091H122.985V70H120.974V67.7841H120.837C120.531 68.4489 120.053 69.0142 119.406 69.4801C118.758 69.9403 117.94 70.1705 116.951 70.1705C116.133 70.1705 115.406 69.9915 114.769 69.6335C114.133 69.2699 113.633 68.7244 113.269 67.9972C112.906 67.2642 112.724 66.3409 112.724 65.2273V56.9091H114.735V65.0909C114.735 66.0455 115.002 66.8068 115.536 67.375C116.076 67.9432 116.763 68.2273 117.599 68.2273C118.099 68.2273 118.607 68.0994 119.124 67.8438C119.647 67.5881 120.085 67.196 120.437 66.6676C120.795 66.1392 120.974 65.4659 120.974 64.6477ZM132.158 70.2727C130.896 70.2727 129.808 69.9943 128.893 69.4375C127.984 68.875 127.283 68.0909 126.788 67.0852C126.3 66.0739 126.055 64.8977 126.055 63.5568C126.055 62.2159 126.3 61.0341 126.788 60.0114C127.283 58.983 127.97 58.1818 128.851 57.608C129.737 57.0284 130.771 56.7386 131.953 56.7386C132.635 56.7386 133.308 56.8523 133.973 57.0795C134.638 57.3068 135.243 57.6761 135.788 58.1875C136.334 58.6932 136.768 59.3636 137.092 60.1989C137.416 61.0341 137.578 62.0625 137.578 63.2841V64.1364H127.487V62.3977H135.533C135.533 61.6591 135.385 61 135.089 60.4205C134.8 59.8409 134.385 59.3835 133.845 59.0483C133.311 58.7131 132.68 58.5455 131.953 58.5455C131.152 58.5455 130.459 58.7443 129.874 59.142C129.294 59.5341 128.848 60.0455 128.536 60.6761C128.223 61.3068 128.067 61.983 128.067 62.7045V63.8636C128.067 64.8523 128.237 65.6903 128.578 66.3778C128.925 67.0597 129.405 67.5795 130.018 67.9375C130.632 68.2898 131.345 68.4659 132.158 68.4659C132.686 68.4659 133.163 68.392 133.589 68.2443C134.021 68.0909 134.393 67.8636 134.706 67.5625C135.018 67.2557 135.26 66.875 135.43 66.4205L137.374 66.9659C137.169 67.625 136.825 68.2045 136.342 68.7045C135.859 69.1989 135.263 69.5852 134.553 69.8636C133.842 70.1364 133.044 70.2727 132.158 70.2727ZM152.706 70.2727C151.524 70.2727 150.487 69.9915 149.595 69.429C148.709 68.8665 148.016 68.0795 147.516 67.0682C147.021 66.0568 146.774 64.875 146.774 63.5227C146.774 62.1591 147.021 60.9687 147.516 59.9517C148.016 58.9347 148.709 58.1449 149.595 57.5824C150.487 57.0199 151.524 56.7386 152.706 56.7386C153.888 56.7386 154.922 57.0199 155.808 57.5824C156.7 58.1449 157.393 58.9347 157.888 59.9517C158.388 60.9687 158.638 62.1591 158.638 63.5227C158.638 64.875 158.388 66.0568 157.888 67.0682C157.393 68.0795 156.7 68.8665 155.808 69.429C154.922 69.9915 153.888 70.2727 152.706 70.2727ZM152.706 68.4659C153.604 68.4659 154.342 68.2358 154.922 67.7756C155.501 67.3153 155.93 66.7102 156.209 65.9602C156.487 65.2102 156.626 64.3977 156.626 63.5227C156.626 62.6477 156.487 61.8324 156.209 61.0767C155.93 60.321 155.501 59.7102 154.922 59.2443C154.342 58.7784 153.604 58.5455 152.706 58.5455C151.808 58.5455 151.07 58.7784 150.49 59.2443C149.911 59.7102 149.482 60.321 149.203 61.0767C148.925 61.8324 148.786 62.6477 148.786 63.5227C148.786 64.3977 148.925 65.2102 149.203 65.9602C149.482 66.7102 149.911 67.3153 150.49 67.7756C151.07 68.2358 151.808 68.4659 152.706 68.4659ZM167.026 70.2727C165.799 70.2727 164.742 69.983 163.856 69.4034C162.969 68.8239 162.288 68.0256 161.81 67.0085C161.333 65.9915 161.094 64.8295 161.094 63.5227C161.094 62.1932 161.339 61.0199 161.827 60.0028C162.322 58.9801 163.009 58.1818 163.89 57.608C164.776 57.0284 165.81 56.7386 166.992 56.7386C167.913 56.7386 168.742 56.9091 169.481 57.25C170.219 57.5909 170.825 58.0682 171.296 58.6818C171.768 59.2955 172.06 60.0114 172.174 60.8295H170.163C170.009 60.233 169.668 59.7045 169.14 59.2443C168.617 58.7784 167.913 58.5455 167.026 58.5455C166.242 58.5455 165.555 58.75 164.964 59.1591C164.379 59.5625 163.921 60.1335 163.592 60.8722C163.268 61.6051 163.106 62.4659 163.106 63.4545C163.106 64.4659 163.265 65.3466 163.583 66.0966C163.907 66.8466 164.362 67.429 164.947 67.8438C165.538 68.2585 166.231 68.4659 167.026 68.4659C167.549 68.4659 168.023 68.375 168.45 68.1932C168.876 68.0114 169.237 67.75 169.532 67.4091C169.827 67.0682 170.038 66.6591 170.163 66.1818H172.174C172.06 66.9545 171.779 67.6506 171.33 68.2699C170.887 68.8835 170.299 69.3722 169.566 69.7358C168.839 70.0938 167.992 70.2727 167.026 70.2727ZM180.433 70.2727C179.251 70.2727 178.214 69.9915 177.322 69.429C176.435 68.8665 175.742 68.0795 175.242 67.0682C174.748 66.0568 174.501 64.875 174.501 63.5227C174.501 62.1591 174.748 60.9687 175.242 59.9517C175.742 58.9347 176.435 58.1449 177.322 57.5824C178.214 57.0199 179.251 56.7386 180.433 56.7386C181.614 56.7386 182.648 57.0199 183.535 57.5824C184.427 58.1449 185.12 58.9347 185.614 59.9517C186.114 60.9687 186.364 62.1591 186.364 63.5227C186.364 64.875 186.114 66.0568 185.614 67.0682C185.12 68.0795 184.427 68.8665 183.535 69.429C182.648 69.9915 181.614 70.2727 180.433 70.2727ZM180.433 68.4659C181.33 68.4659 182.069 68.2358 182.648 67.7756C183.228 67.3153 183.657 66.7102 183.935 65.9602C184.214 65.2102 184.353 64.3977 184.353 63.5227C184.353 62.6477 184.214 61.8324 183.935 61.0767C183.657 60.321 183.228 59.7102 182.648 59.2443C182.069 58.7784 181.33 58.5455 180.433 58.5455C179.535 58.5455 178.796 58.7784 178.217 59.2443C177.637 59.7102 177.208 60.321 176.93 61.0767C176.651 61.8324 176.512 62.6477 176.512 63.5227C176.512 64.3977 176.651 65.2102 176.93 65.9602C177.208 66.7102 177.637 67.3153 178.217 67.7756C178.796 68.2358 179.535 68.4659 180.433 68.4659ZM189.435 70V56.9091H191.378V58.8864H191.514C191.753 58.2386 192.185 57.7131 192.81 57.3097C193.435 56.9062 194.139 56.7045 194.923 56.7045C195.071 56.7045 195.256 56.7074 195.477 56.7131C195.699 56.7187 195.866 56.7273 195.98 56.7386V58.7841C195.912 58.767 195.756 58.7415 195.511 58.7074C195.273 58.6676 195.02 58.6477 194.753 58.6477C194.116 58.6477 193.548 58.7812 193.048 59.0483C192.554 59.3097 192.162 59.6733 191.872 60.1392C191.588 60.5994 191.446 61.125 191.446 61.7159V70H189.435ZM198.364 70V56.9091H200.308V58.8864H200.444C200.683 58.2386 201.114 57.7131 201.739 57.3097C202.364 56.9062 203.069 56.7045 203.853 56.7045C204.001 56.7045 204.185 56.7074 204.407 56.7131C204.629 56.7187 204.796 56.7273 204.91 56.7386V58.7841C204.842 58.767 204.685 58.7415 204.441 58.7074C204.202 58.6676 203.95 58.6477 203.683 58.6477C203.046 58.6477 202.478 58.7812 201.978 59.0483C201.484 59.3097 201.092 59.6733 200.802 60.1392C200.518 60.5994 200.376 61.125 200.376 61.7159V70H198.364ZM212.384 70.2727C211.123 70.2727 210.035 69.9943 209.12 69.4375C208.211 68.875 207.509 68.0909 207.015 67.0852C206.526 66.0739 206.282 64.8977 206.282 63.5568C206.282 62.2159 206.526 61.0341 207.015 60.0114C207.509 58.983 208.197 58.1818 209.077 57.608C209.964 57.0284 210.998 56.7386 212.18 56.7386C212.862 56.7386 213.535 56.8523 214.2 57.0795C214.864 57.3068 215.469 57.6761 216.015 58.1875C216.56 58.6932 216.995 59.3636 217.319 60.1989C217.643 61.0341 217.805 62.0625 217.805 63.2841V64.1364H207.714V62.3977H215.759C215.759 61.6591 215.612 61 215.316 60.4205C215.026 59.8409 214.612 59.3835 214.072 59.0483C213.538 58.7131 212.907 58.5455 212.18 58.5455C211.379 58.5455 210.685 58.7443 210.1 59.142C209.521 59.5341 209.075 60.0455 208.762 60.6761C208.45 61.3068 208.293 61.983 208.293 62.7045V63.8636C208.293 64.8523 208.464 65.6903 208.805 66.3778C209.151 67.0597 209.631 67.5795 210.245 67.9375C210.859 68.2898 211.572 68.4659 212.384 68.4659C212.913 68.4659 213.39 68.392 213.816 68.2443C214.248 68.0909 214.62 67.8636 214.933 67.5625C215.245 67.2557 215.487 66.875 215.657 66.4205L217.6 66.9659C217.396 67.625 217.052 68.2045 216.569 68.7045C216.086 69.1989 215.489 69.5852 214.779 69.8636C214.069 70.1364 213.271 70.2727 212.384 70.2727ZM229.114 64.6477V56.9091H231.126V70H229.114V67.7841H228.978C228.671 68.4489 228.194 69.0142 227.546 69.4801C226.898 69.9403 226.08 70.1705 225.092 70.1705C224.273 70.1705 223.546 69.9915 222.91 69.6335C222.273 69.2699 221.773 68.7244 221.41 67.9972C221.046 67.2642 220.864 66.3409 220.864 65.2273V56.9091H222.876V65.0909C222.876 66.0455 223.143 66.8068 223.677 67.375C224.217 67.9432 224.904 68.2273 225.739 68.2273C226.239 68.2273 226.748 68.0994 227.265 67.8438C227.788 67.5881 228.225 67.196 228.577 66.6676C228.935 66.1392 229.114 65.4659 229.114 64.6477ZM243.571 62.125V70H241.56V56.9091H243.503V58.9545H243.673C243.98 58.2898 244.446 57.7557 245.071 57.3523C245.696 56.9432 246.503 56.7386 247.491 56.7386C248.378 56.7386 249.153 56.9205 249.818 57.2841C250.483 57.642 251 58.1875 251.369 58.9205C251.739 59.6477 251.923 60.5682 251.923 61.6818V70H249.912V61.8182C249.912 60.7898 249.645 59.9886 249.111 59.4148C248.577 58.8352 247.844 58.5455 246.912 58.5455C246.27 58.5455 245.696 58.6847 245.19 58.9631C244.69 59.2415 244.295 59.6477 244.006 60.1818C243.716 60.7159 243.571 61.3636 243.571 62.125ZM260.917 70.2727C259.735 70.2727 258.698 69.9915 257.806 69.429C256.92 68.8665 256.227 68.0795 255.727 67.0682C255.232 66.0568 254.985 64.875 254.985 63.5227C254.985 62.1591 255.232 60.9687 255.727 59.9517C256.227 58.9347 256.92 58.1449 257.806 57.5824C258.698 57.0199 259.735 56.7386 260.917 56.7386C262.099 56.7386 263.133 57.0199 264.019 57.5824C264.911 58.1449 265.604 58.9347 266.099 59.9517C266.599 60.9687 266.849 62.1591 266.849 63.5227C266.849 64.875 266.599 66.0568 266.099 67.0682C265.604 68.0795 264.911 68.8665 264.019 69.429C263.133 69.9915 262.099 70.2727 260.917 70.2727ZM260.917 68.4659C261.815 68.4659 262.553 68.2358 263.133 67.7756C263.712 67.3153 264.141 66.7102 264.42 65.9602C264.698 65.2102 264.837 64.3977 264.837 63.5227C264.837 62.6477 264.698 61.8324 264.42 61.0767C264.141 60.321 263.712 59.7102 263.133 59.2443C262.553 58.7784 261.815 58.5455 260.917 58.5455C260.019 58.5455 259.281 58.7784 258.701 59.2443C258.121 59.7102 257.692 60.321 257.414 61.0767C257.136 61.8324 256.996 62.6477 256.996 63.5227C256.996 64.3977 257.136 65.2102 257.414 65.9602C257.692 66.7102 258.121 67.3153 258.701 67.7756C259.281 68.2358 260.019 68.4659 260.917 68.4659ZM285.942 59.8409L284.135 60.3523C284.021 60.0511 283.854 59.7585 283.632 59.4744C283.416 59.1847 283.121 58.946 282.746 58.7585C282.371 58.571 281.891 58.4773 281.305 58.4773C280.504 58.4773 279.837 58.6619 279.303 59.0312C278.774 59.3949 278.51 59.858 278.51 60.4205C278.51 60.9205 278.692 61.3153 279.055 61.6051C279.419 61.8949 279.987 62.1364 280.76 62.3295L282.703 62.8068C283.874 63.0909 284.746 63.5256 285.32 64.1108C285.893 64.6903 286.18 65.4375 286.18 66.3523C286.18 67.1023 285.964 67.7727 285.533 68.3636C285.107 68.9545 284.51 69.4205 283.743 69.7614C282.976 70.1023 282.084 70.2727 281.067 70.2727C279.732 70.2727 278.626 69.983 277.751 69.4034C276.876 68.8239 276.322 67.9773 276.089 66.8636L277.999 66.3864C278.18 67.0909 278.524 67.6193 279.03 67.9716C279.541 68.3239 280.209 68.5 281.033 68.5C281.97 68.5 282.714 68.3011 283.266 67.9034C283.822 67.5 284.101 67.017 284.101 66.4545C284.101 66 283.942 65.6193 283.624 65.3125C283.305 65 282.817 64.767 282.158 64.6136L279.976 64.1023C278.777 63.8182 277.896 63.3778 277.334 62.7812C276.777 62.179 276.499 61.4261 276.499 60.5227C276.499 59.7841 276.706 59.1307 277.121 58.5625C277.541 57.9943 278.112 57.5483 278.834 57.2244C279.561 56.9006 280.385 56.7386 281.305 56.7386C282.601 56.7386 283.618 57.0227 284.357 57.5909C285.101 58.1591 285.629 58.9091 285.942 59.8409ZM294.697 70.2727C293.435 70.2727 292.347 69.9943 291.433 69.4375C290.523 68.875 289.822 68.0909 289.327 67.0852C288.839 66.0739 288.594 64.8977 288.594 63.5568C288.594 62.2159 288.839 61.0341 289.327 60.0114C289.822 58.983 290.509 58.1818 291.39 57.608C292.276 57.0284 293.31 56.7386 294.492 56.7386C295.174 56.7386 295.847 56.8523 296.512 57.0795C297.177 57.3068 297.782 57.6761 298.327 58.1875C298.873 58.6932 299.308 59.3636 299.631 60.1989C299.955 61.0341 300.117 62.0625 300.117 63.2841V64.1364H290.026V62.3977H298.072C298.072 61.6591 297.924 61 297.629 60.4205C297.339 59.8409 296.924 59.3835 296.384 59.0483C295.85 58.7131 295.219 58.5455 294.492 58.5455C293.691 58.5455 292.998 58.7443 292.413 59.142C291.833 59.5341 291.387 60.0455 291.075 60.6761C290.762 61.3068 290.606 61.983 290.606 62.7045V63.8636C290.606 64.8523 290.776 65.6903 291.117 66.3778C291.464 67.0597 291.944 67.5795 292.558 67.9375C293.171 68.2898 293.884 68.4659 294.697 68.4659C295.225 68.4659 295.702 68.392 296.129 68.2443C296.56 68.0909 296.933 67.8636 297.245 67.5625C297.558 67.2557 297.799 66.875 297.969 66.4205L299.913 66.9659C299.708 67.625 299.364 68.2045 298.881 68.7045C298.398 69.1989 297.802 69.5852 297.092 69.8636C296.381 70.1364 295.583 70.2727 294.697 70.2727ZM293.469 55.1364L295.549 51.1818H297.901L295.242 55.1364H293.469ZM308.495 70.2727C307.268 70.2727 306.211 69.983 305.325 69.4034C304.438 68.8239 303.756 68.0256 303.279 67.0085C302.802 65.9915 302.563 64.8295 302.563 63.5227C302.563 62.1932 302.808 61.0199 303.296 60.0028C303.79 58.9801 304.478 58.1818 305.359 57.608C306.245 57.0284 307.279 56.7386 308.461 56.7386C309.381 56.7386 310.211 56.9091 310.95 57.25C311.688 57.5909 312.293 58.0682 312.765 58.6818C313.237 59.2955 313.529 60.0114 313.643 60.8295H311.631C311.478 60.233 311.137 59.7045 310.609 59.2443C310.086 58.7784 309.381 58.5455 308.495 58.5455C307.711 58.5455 307.023 58.75 306.433 59.1591C305.847 59.5625 305.39 60.1335 305.06 60.8722C304.737 61.6051 304.575 62.4659 304.575 63.4545C304.575 64.4659 304.734 65.3466 305.052 66.0966C305.376 66.8466 305.83 67.429 306.415 67.8438C307.006 68.2585 307.7 68.4659 308.495 68.4659C309.018 68.4659 309.492 68.375 309.918 68.1932C310.344 68.0114 310.705 67.75 311.001 67.4091C311.296 67.0682 311.506 66.6591 311.631 66.1818H313.643C313.529 66.9545 313.248 67.6506 312.799 68.2699C312.356 68.8835 311.768 69.3722 311.035 69.7358C310.308 70.0938 309.461 70.2727 308.495 70.2727ZM324.833 64.6477V56.9091H326.844V70H324.833V67.7841H324.697C324.39 68.4489 323.913 69.0142 323.265 69.4801C322.617 69.9403 321.799 70.1705 320.81 70.1705C319.992 70.1705 319.265 69.9915 318.629 69.6335C317.992 69.2699 317.492 68.7244 317.129 67.9972C316.765 67.2642 316.583 66.3409 316.583 65.2273V56.9091H318.594V65.0909C318.594 66.0455 318.862 66.8068 319.396 67.375C319.935 67.9432 320.623 68.2273 321.458 68.2273C321.958 68.2273 322.467 68.0994 322.984 67.8438C323.506 67.5881 323.944 67.196 324.296 66.6676C324.654 66.1392 324.833 65.4659 324.833 64.6477ZM332.54 52.5455V70H330.528V52.5455H332.54ZM341.542 70.2727C340.36 70.2727 339.323 69.9915 338.431 69.429C337.545 68.8665 336.852 68.0795 336.352 67.0682C335.857 66.0568 335.61 64.875 335.61 63.5227C335.61 62.1591 335.857 60.9687 336.352 59.9517C336.852 58.9347 337.545 58.1449 338.431 57.5824C339.323 57.0199 340.36 56.7386 341.542 56.7386C342.724 56.7386 343.758 57.0199 344.644 57.5824C345.536 58.1449 346.229 58.9347 346.724 59.9517C347.224 60.9687 347.474 62.1591 347.474 63.5227C347.474 64.875 347.224 66.0568 346.724 67.0682C346.229 68.0795 345.536 68.8665 344.644 69.429C343.758 69.9915 342.724 70.2727 341.542 70.2727ZM341.542 68.4659C342.44 68.4659 343.178 68.2358 343.758 67.7756C344.337 67.3153 344.766 66.7102 345.045 65.9602C345.323 65.2102 345.462 64.3977 345.462 63.5227C345.462 62.6477 345.323 61.8324 345.045 61.0767C344.766 60.321 344.337 59.7102 343.758 59.2443C343.178 58.7784 342.44 58.5455 341.542 58.5455C340.644 58.5455 339.906 58.7784 339.326 59.2443C338.746 59.7102 338.317 60.321 338.039 61.0767C337.761 61.8324 337.621 62.6477 337.621 63.5227C337.621 64.3977 337.761 65.2102 338.039 65.9602C338.317 66.7102 338.746 67.3153 339.326 67.7756C339.906 68.2358 340.644 68.4659 341.542 68.4659ZM358.589 52.5455L363.089 59.8068H363.226L367.726 52.5455H370.214L364.726 61.2727L370.214 70H367.726L363.226 62.875H363.089L358.589 70H356.101L361.726 61.2727L356.101 52.5455H358.589ZM375.079 52.5455V70H372.965V52.5455H375.079ZM380.339 52.5455L384.839 59.8068H384.976L389.476 52.5455H391.964L386.476 61.2727L391.964 70H389.476L384.976 62.875H384.839L380.339 70H377.851L383.476 61.2727L377.851 52.5455H380.339ZM397.442 67.6136L397.306 68.5341C397.21 69.1818 397.062 69.875 396.863 70.6136C396.67 71.3523 396.468 72.0483 396.258 72.7017C396.048 73.3551 395.874 73.875 395.738 74.2614H394.204C394.278 73.8977 394.374 73.4176 394.494 72.821C394.613 72.2244 394.732 71.5568 394.852 70.8182C394.977 70.0852 395.079 69.3352 395.158 68.5682L395.261 67.6136H397.442ZM407.919 74.9091V56.9091H409.862V58.9886H410.101C410.249 58.7614 410.453 58.4716 410.714 58.1193C410.982 57.7614 411.362 57.4432 411.857 57.1648C412.357 56.8807 413.033 56.7386 413.885 56.7386C414.987 56.7386 415.959 57.0142 416.8 57.5653C417.641 58.1165 418.297 58.8977 418.768 59.9091C419.24 60.9205 419.476 62.1136 419.476 63.4886C419.476 64.875 419.24 66.0767 418.768 67.0938C418.297 68.1051 417.643 68.8892 416.808 69.446C415.973 69.9972 415.01 70.2727 413.919 70.2727C413.078 70.2727 412.405 70.1335 411.899 69.8551C411.393 69.571 411.004 69.25 410.732 68.892C410.459 68.5284 410.249 68.2273 410.101 67.9886H409.93V74.9091H407.919ZM409.896 63.4545C409.896 64.4432 410.041 65.3153 410.331 66.071C410.621 66.821 411.044 67.4091 411.601 67.8352C412.158 68.2557 412.839 68.4659 413.646 68.4659C414.487 68.4659 415.189 68.2443 415.751 67.8011C416.32 67.3523 416.746 66.75 417.03 65.9943C417.32 65.233 417.464 64.3864 417.464 63.4545C417.464 62.5341 417.322 61.7045 417.038 60.9659C416.76 60.2216 416.337 59.6335 415.768 59.2017C415.206 58.7642 414.499 58.5455 413.646 58.5455C412.828 58.5455 412.141 58.7528 411.584 59.1676C411.027 59.5767 410.607 60.1506 410.322 60.8892C410.038 61.6222 409.896 62.4773 409.896 63.4545ZM426.396 70.3068C425.567 70.3068 424.814 70.1506 424.138 69.8381C423.462 69.5199 422.925 69.0625 422.527 68.4659C422.129 67.8636 421.93 67.1364 421.93 66.2841C421.93 65.5341 422.078 64.9261 422.374 64.4602C422.669 63.9886 423.064 63.6193 423.558 63.3523C424.053 63.0852 424.598 62.8864 425.195 62.7557C425.797 62.6193 426.402 62.5114 427.01 62.4318C427.805 62.3295 428.45 62.2528 428.945 62.2017C429.445 62.1449 429.808 62.0511 430.036 61.9205C430.268 61.7898 430.385 61.5625 430.385 61.2386V61.1705C430.385 60.3295 430.155 59.6761 429.695 59.2102C429.24 58.7443 428.55 58.5114 427.624 58.5114C426.663 58.5114 425.911 58.7216 425.365 59.142C424.82 59.5625 424.436 60.0114 424.214 60.4886L422.305 59.8068C422.646 59.0114 423.101 58.392 423.669 57.9489C424.243 57.5 424.868 57.1875 425.544 57.0114C426.226 56.8295 426.896 56.7386 427.555 56.7386C427.976 56.7386 428.459 56.7898 429.004 56.892C429.555 56.9886 430.087 57.1903 430.598 57.4972C431.115 57.804 431.544 58.267 431.885 58.8864C432.226 59.5057 432.396 60.3352 432.396 61.375V70H430.385V68.2273H430.283C430.146 68.5114 429.919 68.8153 429.601 69.1392C429.283 69.4631 428.859 69.7386 428.331 69.9659C427.803 70.1932 427.158 70.3068 426.396 70.3068ZM426.703 68.5C427.499 68.5 428.169 68.3438 428.714 68.0312C429.266 67.7188 429.68 67.3153 429.959 66.821C430.243 66.3267 430.385 65.8068 430.385 65.2614V63.4205C430.3 63.5227 430.112 63.6165 429.822 63.7017C429.538 63.7812 429.209 63.8523 428.834 63.9148C428.464 63.9716 428.104 64.0227 427.751 64.0682C427.405 64.108 427.124 64.142 426.908 64.1705C426.385 64.2386 425.896 64.3494 425.442 64.5028C424.993 64.6506 424.629 64.875 424.351 65.1761C424.078 65.4716 423.942 65.875 423.942 66.3864C423.942 67.0852 424.2 67.6136 424.717 67.9716C425.24 68.3239 425.902 68.5 426.703 68.5ZM436.067 70V56.9091H438.011V58.8864H438.147C438.386 58.2386 438.817 57.7131 439.442 57.3097C440.067 56.9062 440.772 56.7045 441.556 56.7045C441.704 56.7045 441.888 56.7074 442.11 56.7131C442.332 56.7187 442.499 56.7273 442.613 56.7386V58.7841C442.545 58.767 442.388 58.7415 442.144 58.7074C441.906 58.6676 441.653 58.6477 441.386 58.6477C440.749 58.6477 440.181 58.7812 439.681 59.0483C439.187 59.3097 438.795 59.6733 438.505 60.1392C438.221 60.5994 438.079 61.125 438.079 61.7159V70H436.067ZM448.849 70.3068C448.02 70.3068 447.267 70.1506 446.591 69.8381C445.915 69.5199 445.378 69.0625 444.98 68.4659C444.582 67.8636 444.384 67.1364 444.384 66.2841C444.384 65.5341 444.531 64.9261 444.827 64.4602C445.122 63.9886 445.517 63.6193 446.011 63.3523C446.506 63.0852 447.051 62.8864 447.648 62.7557C448.25 62.6193 448.855 62.5114 449.463 62.4318C450.259 62.3295 450.903 62.2528 451.398 62.2017C451.898 62.1449 452.261 62.0511 452.489 61.9205C452.722 61.7898 452.838 61.5625 452.838 61.2386V61.1705C452.838 60.3295 452.608 59.6761 452.148 59.2102C451.693 58.7443 451.003 58.5114 450.077 58.5114C449.116 58.5114 448.364 58.7216 447.818 59.142C447.273 59.5625 446.889 60.0114 446.668 60.4886L444.759 59.8068C445.099 59.0114 445.554 58.392 446.122 57.9489C446.696 57.5 447.321 57.1875 447.997 57.0114C448.679 56.8295 449.349 56.7386 450.009 56.7386C450.429 56.7386 450.912 56.7898 451.457 56.892C452.009 56.9886 452.54 57.1903 453.051 57.4972C453.568 57.804 453.997 58.267 454.338 58.8864C454.679 59.5057 454.849 60.3352 454.849 61.375V70H452.838V68.2273H452.736C452.599 68.5114 452.372 68.8153 452.054 69.1392C451.736 69.4631 451.313 69.7386 450.784 69.9659C450.256 70.1932 449.611 70.3068 448.849 70.3068ZM449.156 68.5C449.952 68.5 450.622 68.3438 451.168 68.0312C451.719 67.7188 452.134 67.3153 452.412 66.821C452.696 66.3267 452.838 65.8068 452.838 65.2614V63.4205C452.753 63.5227 452.565 63.6165 452.276 63.7017C451.991 63.7812 451.662 63.8523 451.287 63.9148C450.918 63.9716 450.557 64.0227 450.205 64.0682C449.858 64.108 449.577 64.142 449.361 64.1705C448.838 64.2386 448.349 64.3494 447.895 64.5028C447.446 64.6506 447.082 64.875 446.804 65.1761C446.531 65.4716 446.395 65.875 446.395 66.3864C446.395 67.0852 446.653 67.6136 447.17 67.9716C447.693 68.3239 448.355 68.5 449.156 68.5ZM470.759 70.2727C469.498 70.2727 468.41 69.9943 467.495 69.4375C466.586 68.875 465.884 68.0909 465.39 67.0852C464.901 66.0739 464.657 64.8977 464.657 63.5568C464.657 62.2159 464.901 61.0341 465.39 60.0114C465.884 58.983 466.572 58.1818 467.452 57.608C468.339 57.0284 469.373 56.7386 470.555 56.7386C471.237 56.7386 471.91 56.8523 472.575 57.0795C473.239 57.3068 473.844 57.6761 474.39 58.1875C474.935 58.6932 475.37 59.3636 475.694 60.1989C476.018 61.0341 476.18 62.0625 476.18 63.2841V64.1364H466.089V62.3977H474.134C474.134 61.6591 473.987 61 473.691 60.4205C473.401 59.8409 472.987 59.3835 472.447 59.0483C471.913 58.7131 471.282 58.5455 470.555 58.5455C469.754 58.5455 469.06 58.7443 468.475 59.142C467.896 59.5341 467.45 60.0455 467.137 60.6761C466.825 61.3068 466.668 61.983 466.668 62.7045V63.8636C466.668 64.8523 466.839 65.6903 467.18 66.3778C467.526 67.0597 468.006 67.5795 468.62 67.9375C469.234 68.2898 469.947 68.4659 470.759 68.4659C471.288 68.4659 471.765 68.392 472.191 68.2443C472.623 68.0909 472.995 67.8636 473.308 67.5625C473.62 67.2557 473.862 66.875 474.032 66.4205L475.975 66.9659C475.771 67.625 475.427 68.2045 474.944 68.7045C474.461 69.1989 473.864 69.5852 473.154 69.8636C472.444 70.1364 471.646 70.2727 470.759 70.2727ZM481.251 62.125V70H479.239V56.9091H481.183V58.9545H481.353C481.66 58.2898 482.126 57.7557 482.751 57.3523C483.376 56.9432 484.183 56.7386 485.171 56.7386C486.058 56.7386 486.833 56.9205 487.498 57.2841C488.163 57.642 488.68 58.1875 489.049 58.9205C489.418 59.6477 489.603 60.5682 489.603 61.6818V70H487.592V61.8182C487.592 60.7898 487.325 59.9886 486.79 59.4148C486.256 58.8352 485.523 58.5455 484.592 58.5455C483.95 58.5455 483.376 58.6847 482.87 58.9631C482.37 59.2415 481.975 59.6477 481.685 60.1818C481.396 60.7159 481.251 61.3636 481.251 62.125ZM498.972 56.9091V58.6136H492.188V56.9091H498.972ZM494.165 53.7727H496.176V66.25C496.176 66.8182 496.259 67.2443 496.423 67.5284C496.594 67.8068 496.81 67.9943 497.071 68.0909C497.338 68.1818 497.619 68.2273 497.915 68.2273C498.136 68.2273 498.318 68.2159 498.46 68.1932C498.602 68.1648 498.716 68.142 498.801 68.125L499.21 69.9318C499.074 69.983 498.884 70.0341 498.639 70.0852C498.395 70.142 498.085 70.1705 497.71 70.1705C497.142 70.1705 496.585 70.0483 496.04 69.804C495.5 69.5597 495.051 69.1875 494.693 68.6875C494.341 68.1875 494.165 67.5568 494.165 66.7955V53.7727ZM507.345 70.2727C506.084 70.2727 504.996 69.9943 504.081 69.4375C503.172 68.875 502.47 68.0909 501.976 67.0852C501.487 66.0739 501.243 64.8977 501.243 63.5568C501.243 62.2159 501.487 61.0341 501.976 60.0114C502.47 58.983 503.158 58.1818 504.038 57.608C504.925 57.0284 505.959 56.7386 507.141 56.7386C507.822 56.7386 508.496 56.8523 509.161 57.0795C509.825 57.3068 510.43 57.6761 510.976 58.1875C511.521 58.6932 511.956 59.3636 512.28 60.1989C512.604 61.0341 512.766 62.0625 512.766 63.2841V64.1364H502.675V62.3977H510.72C510.72 61.6591 510.572 61 510.277 60.4205C509.987 59.8409 509.572 59.3835 509.033 59.0483C508.499 58.7131 507.868 58.5455 507.141 58.5455C506.339 58.5455 505.646 58.7443 505.061 59.142C504.482 59.5341 504.036 60.0455 503.723 60.6761C503.411 61.3068 503.254 61.983 503.254 62.7045V63.8636C503.254 64.8523 503.425 65.6903 503.766 66.3778C504.112 67.0597 504.592 67.5795 505.206 67.9375C505.82 68.2898 506.533 68.4659 507.345 68.4659C507.874 68.4659 508.351 68.392 508.777 68.2443C509.209 68.0909 509.581 67.8636 509.893 67.5625C510.206 67.2557 510.447 66.875 510.618 66.4205L512.561 66.9659C512.357 67.625 512.013 68.2045 511.53 68.7045C511.047 69.1989 510.45 69.5852 509.74 69.8636C509.03 70.1364 508.232 70.2727 507.345 70.2727ZM517.837 62.125V70H515.825V56.9091H517.768V58.9545H517.939C518.246 58.2898 518.712 57.7557 519.337 57.3523C519.962 56.9432 520.768 56.7386 521.757 56.7386C522.643 56.7386 523.419 56.9205 524.084 57.2841C524.749 57.642 525.266 58.1875 525.635 58.9205C526.004 59.6477 526.189 60.5682 526.189 61.6818V70H524.178V61.8182C524.178 60.7898 523.911 59.9886 523.376 59.4148C522.842 58.8352 522.109 58.5455 521.178 58.5455C520.536 58.5455 519.962 58.6847 519.456 58.9631C518.956 59.2415 518.561 59.6477 518.271 60.1818C517.982 60.7159 517.837 61.3636 517.837 62.125ZM534.808 70.2727C533.717 70.2727 532.754 69.9972 531.918 69.446C531.083 68.8892 530.43 68.1051 529.958 67.0938C529.487 66.0767 529.251 64.875 529.251 63.4886C529.251 62.1136 529.487 60.9205 529.958 59.9091C530.43 58.8977 531.086 58.1165 531.927 57.5653C532.768 57.0142 533.739 56.7386 534.842 56.7386C535.694 56.7386 536.367 56.8807 536.862 57.1648C537.362 57.4432 537.742 57.7614 538.004 58.1193C538.271 58.4716 538.478 58.7614 538.626 58.9886H538.796V52.5455H540.808V70H538.864V67.9886H538.626C538.478 68.2273 538.268 68.5284 537.995 68.892C537.722 69.25 537.333 69.571 536.827 69.8551C536.322 70.1335 535.648 70.2727 534.808 70.2727ZM535.08 68.4659C535.887 68.4659 536.569 68.2557 537.126 67.8352C537.683 67.4091 538.106 66.821 538.396 66.071C538.685 65.3153 538.83 64.4432 538.83 63.4545C538.83 62.4773 538.688 61.6222 538.404 60.8892C538.12 60.1506 537.7 59.5767 537.143 59.1676C536.586 58.7528 535.898 58.5455 535.08 58.5455C534.228 58.5455 533.518 58.7642 532.95 59.2017C532.387 59.6335 531.964 60.2216 531.68 60.9659C531.401 61.7045 531.262 62.5341 531.262 63.4545C531.262 64.3864 531.404 65.233 531.688 65.9943C531.978 66.75 532.404 67.3523 532.967 67.8011C533.535 68.2443 534.239 68.4659 535.08 68.4659ZM550.259 70.2727C548.998 70.2727 547.91 69.9943 546.995 69.4375C546.086 68.875 545.384 68.0909 544.89 67.0852C544.401 66.0739 544.157 64.8977 544.157 63.5568C544.157 62.2159 544.401 61.0341 544.89 60.0114C545.384 58.983 546.072 58.1818 546.952 57.608C547.839 57.0284 548.873 56.7386 550.055 56.7386C550.737 56.7386 551.41 56.8523 552.075 57.0795C552.739 57.3068 553.344 57.6761 553.89 58.1875C554.435 58.6932 554.87 59.3636 555.194 60.1989C555.518 61.0341 555.68 62.0625 555.68 63.2841V64.1364H545.589V62.3977H553.634C553.634 61.6591 553.487 61 553.191 60.4205C552.901 59.8409 552.487 59.3835 551.947 59.0483C551.413 58.7131 550.782 58.5455 550.055 58.5455C549.254 58.5455 548.56 58.7443 547.975 59.142C547.396 59.5341 546.95 60.0455 546.637 60.6761C546.325 61.3068 546.168 61.983 546.168 62.7045V63.8636C546.168 64.8523 546.339 65.6903 546.68 66.3778C547.026 67.0597 547.506 67.5795 548.12 67.9375C548.734 68.2898 549.447 68.4659 550.259 68.4659C550.788 68.4659 551.265 68.392 551.691 68.2443C552.123 68.0909 552.495 67.8636 552.808 67.5625C553.12 67.2557 553.362 66.875 553.532 66.4205L555.475 66.9659C555.271 67.625 554.927 68.2045 554.444 68.7045C553.961 69.1989 553.364 69.5852 552.654 69.8636C551.944 70.1364 551.146 70.2727 550.259 70.2727ZM558.739 70V56.9091H560.683V58.8864H560.819C561.058 58.2386 561.489 57.7131 562.114 57.3097C562.739 56.9062 563.444 56.7045 564.228 56.7045C564.376 56.7045 564.56 56.7074 564.782 56.7131C565.004 56.7187 565.171 56.7273 565.285 56.7386V58.7841C565.217 58.767 565.06 58.7415 564.816 58.7074C564.577 58.6676 564.325 58.6477 564.058 58.6477C563.421 58.6477 562.853 58.7812 562.353 59.0483C561.859 59.3097 561.467 59.6733 561.177 60.1392C560.893 60.5994 560.751 61.125 560.751 61.7159V70H558.739ZM19.8409 99V85.9091H21.7841V87.9545H21.9545C22.2273 87.2557 22.6676 86.7131 23.2756 86.3267C23.8835 85.9347 24.6136 85.7386 25.4659 85.7386C26.3295 85.7386 27.0483 85.9347 27.6222 86.3267C28.2017 86.7131 28.6534 87.2557 28.9773 87.9545H29.1136C29.4489 87.2784 29.9517 86.7415 30.6222 86.3438C31.2926 85.9403 32.0966 85.7386 33.0341 85.7386C34.2045 85.7386 35.1619 86.1051 35.9062 86.8381C36.6506 87.5653 37.0227 88.6989 37.0227 90.2386V99H35.0114V90.2386C35.0114 89.2727 34.7472 88.5824 34.2188 88.1676C33.6903 87.7528 33.0682 87.5455 32.3523 87.5455C31.4318 87.5455 30.7188 87.8239 30.2131 88.3807C29.7074 88.9318 29.4545 89.6307 29.4545 90.4773V99H27.4091V90.0341C27.4091 89.2898 27.1676 88.6903 26.6847 88.2358C26.2017 87.7756 25.5795 87.5455 24.8182 87.5455C24.2955 87.5455 23.8068 87.6847 23.3523 87.9631C22.9034 88.2415 22.5398 88.6278 22.2614 89.1222C21.9886 89.6108 21.8523 90.1761 21.8523 90.8182V99H19.8409ZM44.5526 99.3068C43.723 99.3068 42.9702 99.1506 42.294 98.8381C41.6179 98.5199 41.081 98.0625 40.6832 97.4659C40.2855 96.8636 40.0866 96.1364 40.0866 95.2841C40.0866 94.5341 40.2344 93.9261 40.5298 93.4602C40.8253 92.9886 41.2202 92.6193 41.7145 92.3523C42.2088 92.0852 42.7543 91.8864 43.3509 91.7557C43.9531 91.6193 44.5582 91.5114 45.1662 91.4318C45.9616 91.3295 46.6065 91.2528 47.1009 91.2017C47.6009 91.1449 47.9645 91.0511 48.1918 90.9205C48.4247 90.7898 48.5412 90.5625 48.5412 90.2386V90.1705C48.5412 89.3295 48.3111 88.6761 47.8509 88.2102C47.3963 87.7443 46.706 87.5114 45.7798 87.5114C44.8196 87.5114 44.0668 87.7216 43.5213 88.142C42.9759 88.5625 42.5923 89.0114 42.3707 89.4886L40.4616 88.8068C40.8026 88.0114 41.2571 87.392 41.8253 86.9489C42.3991 86.5 43.0241 86.1875 43.7003 86.0114C44.3821 85.8295 45.0526 85.7386 45.7116 85.7386C46.1321 85.7386 46.6151 85.7898 47.1605 85.892C47.7116 85.9886 48.2429 86.1903 48.7543 86.4972C49.2713 86.804 49.7003 87.267 50.0412 87.8864C50.3821 88.5057 50.5526 89.3352 50.5526 90.375V99H48.5412V97.2273H48.4389C48.3026 97.5114 48.0753 97.8153 47.7571 98.1392C47.4389 98.4631 47.0156 98.7386 46.4872 98.9659C45.9588 99.1932 45.3139 99.3068 44.5526 99.3068ZM44.8594 97.5C45.6548 97.5 46.3253 97.3438 46.8707 97.0312C47.4219 96.7188 47.8366 96.3153 48.1151 95.821C48.3991 95.3267 48.5412 94.8068 48.5412 94.2614V92.4205C48.456 92.5227 48.2685 92.6165 47.9787 92.7017C47.6946 92.7812 47.3651 92.8523 46.9901 92.9148C46.6207 92.9716 46.2599 93.0227 45.9077 93.0682C45.5611 93.108 45.2798 93.142 45.0639 93.1705C44.5412 93.2386 44.0526 93.3494 43.598 93.5028C43.1491 93.6506 42.7855 93.875 42.5071 94.1761C42.2344 94.4716 42.098 94.875 42.098 95.3864C42.098 96.0852 42.3565 96.6136 42.8736 96.9716C43.3963 97.3239 44.0582 97.5 44.8594 97.5ZM54.2237 99V85.9091H56.2351V99H54.2237ZM55.2464 83.7273C54.8544 83.7273 54.5163 83.5938 54.2322 83.3267C53.9538 83.0597 53.8146 82.7386 53.8146 82.3636C53.8146 81.9886 53.9538 81.6676 54.2322 81.4006C54.5163 81.1335 54.8544 81 55.2464 81C55.6385 81 55.9737 81.1335 56.2521 81.4006C56.5362 81.6676 56.6783 81.9886 56.6783 82.3636C56.6783 82.7386 56.5362 83.0597 56.2521 83.3267C55.9737 83.5938 55.6385 83.7273 55.2464 83.7273ZM69.1918 88.8409L67.3849 89.3523C67.2713 89.0511 67.1037 88.7585 66.8821 88.4744C66.6662 88.1847 66.3707 87.946 65.9957 87.7585C65.6207 87.571 65.1406 87.4773 64.5554 87.4773C63.7543 87.4773 63.0866 87.6619 62.5526 88.0312C62.0241 88.3949 61.7599 88.858 61.7599 89.4205C61.7599 89.9205 61.9418 90.3153 62.3054 90.6051C62.669 90.8949 63.2372 91.1364 64.0099 91.3295L65.9531 91.8068C67.1236 92.0909 67.9957 92.5256 68.5696 93.1108C69.1435 93.6903 69.4304 94.4375 69.4304 95.3523C69.4304 96.1023 69.2145 96.7727 68.7827 97.3636C68.3565 97.9545 67.7599 98.4205 66.9929 98.7614C66.2259 99.1023 65.3338 99.2727 64.3168 99.2727C62.9815 99.2727 61.8764 98.983 61.0014 98.4034C60.1264 97.8239 59.5724 96.9773 59.3395 95.8636L61.2486 95.3864C61.4304 96.0909 61.7741 96.6193 62.2798 96.9716C62.7912 97.3239 63.4588 97.5 64.2827 97.5C65.2202 97.5 65.9645 97.3011 66.5156 96.9034C67.0724 96.5 67.3509 96.017 67.3509 95.4545C67.3509 95 67.1918 94.6193 66.8736 94.3125C66.5554 94 66.0668 93.767 65.4077 93.6136L63.2259 93.1023C62.027 92.8182 61.1463 92.3778 60.5838 91.7812C60.027 91.179 59.7486 90.4261 59.7486 89.5227C59.7486 88.7841 59.956 88.1307 60.3707 87.5625C60.7912 86.9943 61.3622 86.5483 62.0838 86.2244C62.8111 85.9006 63.6349 85.7386 64.5554 85.7386C65.8509 85.7386 66.8679 86.0227 67.6065 86.5909C68.3509 87.1591 68.8793 87.9091 69.1918 88.8409ZM88.4808 88.8409L86.674 89.3523C86.5604 89.0511 86.3928 88.7585 86.1712 88.4744C85.9553 88.1847 85.6598 87.946 85.2848 87.7585C84.9098 87.571 84.4297 87.4773 83.8445 87.4773C83.0433 87.4773 82.3757 87.6619 81.8416 88.0312C81.3132 88.3949 81.049 88.858 81.049 89.4205C81.049 89.9205 81.2308 90.3153 81.5945 90.6051C81.9581 90.8949 82.5263 91.1364 83.299 91.3295L85.2422 91.8068C86.4126 92.0909 87.2848 92.5256 87.8587 93.1108C88.4325 93.6903 88.7195 94.4375 88.7195 95.3523C88.7195 96.1023 88.5036 96.7727 88.0717 97.3636C87.6456 97.9545 87.049 98.4205 86.282 98.7614C85.5149 99.1023 84.6229 99.2727 83.6058 99.2727C82.2706 99.2727 81.1655 98.983 80.2905 98.4034C79.4155 97.8239 78.8615 96.9773 78.6286 95.8636L80.5376 95.3864C80.7195 96.0909 81.0632 96.6193 81.5689 96.9716C82.0803 97.3239 82.7479 97.5 83.5717 97.5C84.5092 97.5 85.2536 97.3011 85.8047 96.9034C86.3615 96.5 86.6399 96.017 86.6399 95.4545C86.6399 95 86.4808 94.6193 86.1626 94.3125C85.8445 94 85.3558 93.767 84.6967 93.6136L82.5149 93.1023C81.3161 92.8182 80.4354 92.3778 79.8729 91.7812C79.3161 91.179 79.0376 90.4261 79.0376 89.5227C79.0376 88.7841 79.245 88.1307 79.6598 87.5625C80.0803 86.9943 80.6513 86.5483 81.3729 86.2244C82.1001 85.9006 82.924 85.7386 83.8445 85.7386C85.1399 85.7386 86.157 86.0227 86.8956 86.5909C87.6399 87.1591 88.1683 87.9091 88.4808 88.8409ZM97.0653 99.2727C95.8835 99.2727 94.8466 98.9915 93.9545 98.429C93.0682 97.8665 92.375 97.0795 91.875 96.0682C91.3807 95.0568 91.1335 93.875 91.1335 92.5227C91.1335 91.1591 91.3807 89.9687 91.875 88.9517C92.375 87.9347 93.0682 87.1449 93.9545 86.5824C94.8466 86.0199 95.8835 85.7386 97.0653 85.7386C98.2472 85.7386 99.2813 86.0199 100.168 86.5824C101.06 87.1449 101.753 87.9347 102.247 88.9517C102.747 89.9687 102.997 91.1591 102.997 92.5227C102.997 93.875 102.747 95.0568 102.247 96.0682C101.753 97.0795 101.06 97.8665 100.168 98.429C99.2813 98.9915 98.2472 99.2727 97.0653 99.2727ZM97.0653 97.4659C97.9631 97.4659 98.7017 97.2358 99.2812 96.7756C99.8608 96.3153 100.29 95.7102 100.568 94.9602C100.847 94.2102 100.986 93.3977 100.986 92.5227C100.986 91.6477 100.847 90.8324 100.568 90.0767C100.29 89.321 99.8608 88.7102 99.2812 88.2443C98.7017 87.7784 97.9631 87.5455 97.0653 87.5455C96.1676 87.5455 95.429 87.7784 94.8494 88.2443C94.2699 88.7102 93.8409 89.321 93.5625 90.0767C93.2841 90.8324 93.1449 91.6477 93.1449 92.5227C93.1449 93.3977 93.2841 94.2102 93.5625 94.9602C93.8409 95.7102 94.2699 96.3153 94.8494 96.7756C95.429 97.2358 96.1676 97.4659 97.0653 97.4659ZM106.34 99V81.5455H108.352V87.9886H108.522C108.67 87.7614 108.874 87.4716 109.136 87.1193C109.403 86.7614 109.783 86.4432 110.278 86.1648C110.778 85.8807 111.454 85.7386 112.306 85.7386C113.408 85.7386 114.38 86.0142 115.221 86.5653C116.062 87.1165 116.718 87.8977 117.19 88.9091C117.661 89.9205 117.897 91.1136 117.897 92.4886C117.897 93.875 117.661 95.0767 117.19 96.0938C116.718 97.1051 116.065 97.8892 115.229 98.446C114.394 98.9972 113.431 99.2727 112.34 99.2727C111.499 99.2727 110.826 99.1335 110.32 98.8551C109.815 98.571 109.425 98.25 109.153 97.892C108.88 97.5284 108.67 97.2273 108.522 96.9886H108.283V99H106.34ZM108.317 92.4545C108.317 93.4432 108.462 94.3153 108.752 95.071C109.042 95.821 109.465 96.4091 110.022 96.8352C110.579 97.2557 111.261 97.4659 112.067 97.4659C112.908 97.4659 113.61 97.2443 114.173 96.8011C114.741 96.3523 115.167 95.75 115.451 94.9943C115.741 94.233 115.886 93.3864 115.886 92.4545C115.886 91.5341 115.744 90.7045 115.46 89.9659C115.181 89.2216 114.758 88.6335 114.19 88.2017C113.627 87.7642 112.92 87.5455 112.067 87.5455C111.249 87.5455 110.562 87.7528 110.005 88.1676C109.448 88.5767 109.028 89.1506 108.744 89.8892C108.46 90.6222 108.317 91.4773 108.317 92.4545ZM120.974 99V85.9091H122.917V87.8864H123.053C123.292 87.2386 123.724 86.7131 124.349 86.3097C124.974 85.9062 125.678 85.7045 126.462 85.7045C126.61 85.7045 126.795 85.7074 127.016 85.7131C127.238 85.7187 127.406 85.7273 127.519 85.7386V87.7841C127.451 87.767 127.295 87.7415 127.05 87.7074C126.812 87.6676 126.559 87.6477 126.292 87.6477C125.656 87.6477 125.087 87.7812 124.587 88.0483C124.093 88.3097 123.701 88.6733 123.411 89.1392C123.127 89.5994 122.985 90.125 122.985 90.7159V99H120.974ZM134.994 99.2727C133.732 99.2727 132.644 98.9943 131.729 98.4375C130.82 97.875 130.119 97.0909 129.624 96.0852C129.136 95.0739 128.891 93.8977 128.891 92.5568C128.891 91.2159 129.136 90.0341 129.624 89.0114C130.119 87.983 130.806 87.1818 131.687 86.608C132.573 86.0284 133.607 85.7386 134.789 85.7386C135.471 85.7386 136.144 85.8523 136.809 86.0795C137.474 86.3068 138.079 86.6761 138.624 87.1875C139.17 87.6932 139.604 88.3636 139.928 89.1989C140.252 90.0341 140.414 91.0625 140.414 92.2841V93.1364H130.323V91.3977H138.369C138.369 90.6591 138.221 90 137.925 89.4205C137.636 88.8409 137.221 88.3835 136.681 88.0483C136.147 87.7131 135.516 87.5455 134.789 87.5455C133.988 87.5455 133.295 87.7443 132.71 88.142C132.13 88.5341 131.684 89.0455 131.371 89.6761C131.059 90.3068 130.903 90.983 130.903 91.7045V92.8636C130.903 93.8523 131.073 94.6903 131.414 95.3778C131.761 96.0597 132.241 96.5795 132.854 96.9375C133.468 97.2898 134.181 97.4659 134.994 97.4659C135.522 97.4659 135.999 97.392 136.425 97.2443C136.857 97.0909 137.229 96.8636 137.542 96.5625C137.854 96.2557 138.096 95.875 138.266 95.4205L140.21 95.9659C140.005 96.625 139.661 97.2045 139.178 97.7045C138.695 98.1989 138.099 98.5852 137.388 98.8636C136.678 99.1364 135.88 99.2727 134.994 99.2727ZM155.542 99.2727C154.36 99.2727 153.323 98.9915 152.431 98.429C151.545 97.8665 150.852 97.0795 150.352 96.0682C149.857 95.0568 149.61 93.875 149.61 92.5227C149.61 91.1591 149.857 89.9687 150.352 88.9517C150.852 87.9347 151.545 87.1449 152.431 86.5824C153.323 86.0199 154.36 85.7386 155.542 85.7386C156.724 85.7386 157.758 86.0199 158.644 86.5824C159.536 87.1449 160.229 87.9347 160.724 88.9517C161.224 89.9687 161.474 91.1591 161.474 92.5227C161.474 93.875 161.224 95.0568 160.724 96.0682C160.229 97.0795 159.536 97.8665 158.644 98.429C157.758 98.9915 156.724 99.2727 155.542 99.2727ZM155.542 97.4659C156.44 97.4659 157.178 97.2358 157.758 96.7756C158.337 96.3153 158.766 95.7102 159.045 94.9602C159.323 94.2102 159.462 93.3977 159.462 92.5227C159.462 91.6477 159.323 90.8324 159.045 90.0767C158.766 89.321 158.337 88.7102 157.758 88.2443C157.178 87.7784 156.44 87.5455 155.542 87.5455C154.644 87.5455 153.906 87.7784 153.326 88.2443C152.746 88.7102 152.317 89.321 152.039 90.0767C151.761 90.8324 151.621 91.6477 151.621 92.5227C151.621 93.3977 151.761 94.2102 152.039 94.9602C152.317 95.7102 152.746 96.3153 153.326 96.7756C153.906 97.2358 154.644 97.4659 155.542 97.4659ZM176.612 99.2727C175.385 99.2727 174.328 98.983 173.442 98.4034C172.555 97.8239 171.874 97.0256 171.396 96.0085C170.919 94.9915 170.68 93.8295 170.68 92.5227C170.68 91.1932 170.925 90.0199 171.413 89.0028C171.908 87.9801 172.595 87.1818 173.476 86.608C174.362 86.0284 175.396 85.7386 176.578 85.7386C177.499 85.7386 178.328 85.9091 179.067 86.25C179.805 86.5909 180.411 87.0682 180.882 87.6818C181.354 88.2955 181.646 89.0114 181.76 89.8295H179.749C179.595 89.233 179.254 88.7045 178.726 88.2443C178.203 87.7784 177.499 87.5455 176.612 87.5455C175.828 87.5455 175.141 87.75 174.55 88.1591C173.964 88.5625 173.507 89.1335 173.178 89.8722C172.854 90.6051 172.692 91.4659 172.692 92.4545C172.692 93.4659 172.851 94.3466 173.169 95.0966C173.493 95.8466 173.947 96.429 174.533 96.8438C175.124 97.2585 175.817 97.4659 176.612 97.4659C177.135 97.4659 177.609 97.375 178.036 97.1932C178.462 97.0114 178.822 96.75 179.118 96.4091C179.413 96.0682 179.624 95.6591 179.749 95.1818H181.76C181.646 95.9545 181.365 96.6506 180.916 97.2699C180.473 97.8835 179.885 98.3722 179.152 98.7358C178.425 99.0938 177.578 99.2727 176.612 99.2727ZM188.553 99.3068C187.723 99.3068 186.97 99.1506 186.294 98.8381C185.618 98.5199 185.081 98.0625 184.683 97.4659C184.286 96.8636 184.087 96.1364 184.087 95.2841C184.087 94.5341 184.234 93.9261 184.53 93.4602C184.825 92.9886 185.22 92.6193 185.714 92.3523C186.209 92.0852 186.754 91.8864 187.351 91.7557C187.953 91.6193 188.558 91.5114 189.166 91.4318C189.962 91.3295 190.607 91.2528 191.101 91.2017C191.601 91.1449 191.964 91.0511 192.192 90.9205C192.425 90.7898 192.541 90.5625 192.541 90.2386V90.1705C192.541 89.3295 192.311 88.6761 191.851 88.2102C191.396 87.7443 190.706 87.5114 189.78 87.5114C188.82 87.5114 188.067 87.7216 187.521 88.142C186.976 88.5625 186.592 89.0114 186.371 89.4886L184.462 88.8068C184.803 88.0114 185.257 87.392 185.825 86.9489C186.399 86.5 187.024 86.1875 187.7 86.0114C188.382 85.8295 189.053 85.7386 189.712 85.7386C190.132 85.7386 190.615 85.7898 191.161 85.892C191.712 85.9886 192.243 86.1903 192.754 86.4972C193.271 86.804 193.7 87.267 194.041 87.8864C194.382 88.5057 194.553 89.3352 194.553 90.375V99H192.541V97.2273H192.439C192.303 97.5114 192.075 97.8153 191.757 98.1392C191.439 98.4631 191.016 98.7386 190.487 98.9659C189.959 99.1932 189.314 99.3068 188.553 99.3068ZM188.859 97.5C189.655 97.5 190.325 97.3438 190.871 97.0312C191.422 96.7188 191.837 96.3153 192.115 95.821C192.399 95.3267 192.541 94.8068 192.541 94.2614V92.4205C192.456 92.5227 192.268 92.6165 191.979 92.7017C191.695 92.7812 191.365 92.8523 190.99 92.9148C190.621 92.9716 190.26 93.0227 189.908 93.0682C189.561 93.108 189.28 93.142 189.064 93.1705C188.541 93.2386 188.053 93.3494 187.598 93.5028C187.149 93.6506 186.786 93.875 186.507 94.1761C186.234 94.4716 186.098 94.875 186.098 95.3864C186.098 96.0852 186.357 96.6136 186.874 96.9716C187.396 97.3239 188.058 97.5 188.859 97.5ZM207.496 88.8409L205.69 89.3523C205.576 89.0511 205.408 88.7585 205.187 88.4744C204.971 88.1847 204.675 87.946 204.3 87.7585C203.925 87.571 203.445 87.4773 202.86 87.4773C202.059 87.4773 201.391 87.6619 200.857 88.0312C200.329 88.3949 200.065 88.858 200.065 89.4205C200.065 89.9205 200.246 90.3153 200.61 90.6051C200.974 90.8949 201.542 91.1364 202.315 91.3295L204.258 91.8068C205.428 92.0909 206.3 92.5256 206.874 93.1108C207.448 93.6903 207.735 94.4375 207.735 95.3523C207.735 96.1023 207.519 96.7727 207.087 97.3636C206.661 97.9545 206.065 98.4205 205.298 98.7614C204.531 99.1023 203.638 99.2727 202.621 99.2727C201.286 99.2727 200.181 98.983 199.306 98.4034C198.431 97.8239 197.877 96.9773 197.644 95.8636L199.553 95.3864C199.735 96.0909 200.079 96.6193 200.585 96.9716C201.096 97.3239 201.763 97.5 202.587 97.5C203.525 97.5 204.269 97.3011 204.82 96.9034C205.377 96.5 205.656 96.017 205.656 95.4545C205.656 95 205.496 94.6193 205.178 94.3125C204.86 94 204.371 93.767 203.712 93.6136L201.531 93.1023C200.332 92.8182 199.451 92.3778 198.888 91.7812C198.332 91.179 198.053 90.4261 198.053 89.5227C198.053 88.7841 198.261 88.1307 198.675 87.5625C199.096 86.9943 199.667 86.5483 200.388 86.2244C201.116 85.9006 201.94 85.7386 202.86 85.7386C204.156 85.7386 205.173 86.0227 205.911 86.5909C206.656 87.1591 207.184 87.9091 207.496 88.8409ZM216.081 99.2727C214.899 99.2727 213.862 98.9915 212.97 98.429C212.084 97.8665 211.391 97.0795 210.891 96.0682C210.396 95.0568 210.149 93.875 210.149 92.5227C210.149 91.1591 210.396 89.9687 210.891 88.9517C211.391 87.9347 212.084 87.1449 212.97 86.5824C213.862 86.0199 214.899 85.7386 216.081 85.7386C217.263 85.7386 218.297 86.0199 219.183 86.5824C220.075 87.1449 220.768 87.9347 221.263 88.9517C221.763 89.9687 222.013 91.1591 222.013 92.5227C222.013 93.875 221.763 95.0568 221.263 96.0682C220.768 97.0795 220.075 97.8665 219.183 98.429C218.297 98.9915 217.263 99.2727 216.081 99.2727ZM216.081 97.4659C216.979 97.4659 217.717 97.2358 218.297 96.7756C218.876 96.3153 219.305 95.7102 219.584 94.9602C219.862 94.2102 220.001 93.3977 220.001 92.5227C220.001 91.6477 219.862 90.8324 219.584 90.0767C219.305 89.321 218.876 88.7102 218.297 88.2443C217.717 87.7784 216.979 87.5455 216.081 87.5455C215.183 87.5455 214.445 87.7784 213.865 88.2443C213.286 88.7102 212.857 89.321 212.578 90.0767C212.3 90.8324 212.161 91.6477 212.161 92.5227C212.161 93.3977 212.3 94.2102 212.578 94.9602C212.857 95.7102 213.286 96.3153 213.865 96.7756C214.445 97.2358 215.183 97.4659 216.081 97.4659ZM237.151 99.2727C235.924 99.2727 234.867 98.983 233.981 98.4034C233.094 97.8239 232.413 97.0256 231.935 96.0085C231.458 94.9915 231.219 93.8295 231.219 92.5227C231.219 91.1932 231.464 90.0199 231.952 89.0028C232.447 87.9801 233.134 87.1818 234.015 86.608C234.901 86.0284 235.935 85.7386 237.117 85.7386C238.038 85.7386 238.867 85.9091 239.606 86.25C240.344 86.5909 240.95 87.0682 241.421 87.6818C241.893 88.2955 242.185 89.0114 242.299 89.8295H240.288C240.134 89.233 239.793 88.7045 239.265 88.2443C238.742 87.7784 238.038 87.5455 237.151 87.5455C236.367 87.5455 235.68 87.75 235.089 88.1591C234.504 88.5625 234.046 89.1335 233.717 89.8722C233.393 90.6051 233.231 91.4659 233.231 92.4545C233.231 93.4659 233.39 94.3466 233.708 95.0966C234.032 95.8466 234.487 96.429 235.072 96.8438C235.663 97.2585 236.356 97.4659 237.151 97.4659C237.674 97.4659 238.148 97.375 238.575 97.1932C239.001 97.0114 239.362 96.75 239.657 96.4091C239.952 96.0682 240.163 95.6591 240.288 95.1818H242.299C242.185 95.9545 241.904 96.6506 241.455 97.2699C241.012 97.8835 240.424 98.3722 239.691 98.7358C238.964 99.0938 238.117 99.2727 237.151 99.2727ZM247.251 81.5455V99H245.239V81.5455H247.251ZM250.935 99V85.9091H252.946V99H250.935ZM251.957 83.7273C251.565 83.7273 251.227 83.5938 250.943 83.3267C250.665 83.0597 250.526 82.7386 250.526 82.3636C250.526 81.9886 250.665 81.6676 250.943 81.4006C251.227 81.1335 251.565 81 251.957 81C252.349 81 252.685 81.1335 252.963 81.4006C253.247 81.6676 253.389 81.9886 253.389 82.3636C253.389 82.7386 253.247 83.0597 252.963 83.3267C252.685 83.5938 252.349 83.7273 251.957 83.7273ZM265.562 103.909V96.9886H265.391C265.244 97.2273 265.033 97.5284 264.761 97.892C264.488 98.25 264.099 98.571 263.593 98.8551C263.087 99.1335 262.414 99.2727 261.573 99.2727C260.482 99.2727 259.519 98.9972 258.684 98.446C257.849 97.8892 257.195 97.1051 256.724 96.0938C256.252 95.0767 256.016 93.875 256.016 92.4886C256.016 91.1136 256.252 89.9205 256.724 88.9091C257.195 87.8977 257.852 87.1165 258.692 86.5653C259.533 86.0142 260.505 85.7386 261.607 85.7386C262.46 85.7386 263.133 85.8807 263.627 86.1648C264.127 86.4432 264.508 86.7614 264.769 87.1193C265.036 87.4716 265.244 87.7614 265.391 87.9886H265.63V85.9091H267.573V103.909H265.562ZM261.846 97.4659C262.653 97.4659 263.335 97.2557 263.891 96.8352C264.448 96.4091 264.871 95.821 265.161 95.071C265.451 94.3153 265.596 93.4432 265.596 92.4545C265.596 91.4773 265.454 90.6222 265.17 89.8892C264.886 89.1506 264.465 88.5767 263.908 88.1676C263.352 87.7528 262.664 87.5455 261.846 87.5455C260.994 87.5455 260.283 87.7642 259.715 88.2017C259.153 88.6335 258.729 89.2216 258.445 89.9659C258.167 90.7045 258.028 91.5341 258.028 92.4545C258.028 93.3864 258.17 94.233 258.454 94.9943C258.744 95.75 259.17 96.3523 259.732 96.8011C260.3 97.2443 261.005 97.4659 261.846 97.4659ZM279.505 93.6477V85.9091H281.516V99H279.505V96.7841H279.369C279.062 97.4489 278.585 98.0142 277.937 98.4801C277.289 98.9403 276.471 99.1705 275.482 99.1705C274.664 99.1705 273.937 98.9915 273.3 98.6335C272.664 98.2699 272.164 97.7244 271.8 96.9972C271.437 96.2642 271.255 95.3409 271.255 94.2273V85.9091H273.266V94.0909C273.266 95.0455 273.533 95.8068 274.067 96.375C274.607 96.9432 275.295 97.2273 276.13 97.2273C276.63 97.2273 277.138 97.0994 277.656 96.8438C278.178 96.5881 278.616 96.196 278.968 95.6676C279.326 95.1392 279.505 94.4659 279.505 93.6477ZM290.689 99.2727C289.428 99.2727 288.339 98.9943 287.425 98.4375C286.516 97.875 285.814 97.0909 285.32 96.0852C284.831 95.0739 284.587 93.8977 284.587 92.5568C284.587 91.2159 284.831 90.0341 285.32 89.0114C285.814 87.983 286.501 87.1818 287.382 86.608C288.268 86.0284 289.303 85.7386 290.484 85.7386C291.166 85.7386 291.839 85.8523 292.504 86.0795C293.169 86.3068 293.774 86.6761 294.32 87.1875C294.865 87.6932 295.3 88.3636 295.624 89.1989C295.947 90.0341 296.109 91.0625 296.109 92.2841V93.1364H286.018V91.3977H294.064C294.064 90.6591 293.916 90 293.621 89.4205C293.331 88.8409 292.916 88.3835 292.376 88.0483C291.842 87.7131 291.212 87.5455 290.484 87.5455C289.683 87.5455 288.99 87.7443 288.405 88.142C287.825 88.5341 287.379 89.0455 287.067 89.6761C286.754 90.3068 286.598 90.983 286.598 91.7045V92.8636C286.598 93.8523 286.768 94.6903 287.109 95.3778C287.456 96.0597 287.936 96.5795 288.55 96.9375C289.163 97.2898 289.876 97.4659 290.689 97.4659C291.217 97.4659 291.695 97.392 292.121 97.2443C292.553 97.0909 292.925 96.8636 293.237 96.5625C293.55 96.2557 293.791 95.875 293.962 95.4205L295.905 95.9659C295.7 96.625 295.357 97.2045 294.874 97.7045C294.391 98.1989 293.794 98.5852 293.084 98.8636C292.374 99.1364 291.575 99.2727 290.689 99.2727ZM307.93 91.125V99H305.919V85.9091H307.862V87.9545H308.033C308.339 87.2898 308.805 86.7557 309.43 86.3523C310.055 85.9432 310.862 85.7386 311.851 85.7386C312.737 85.7386 313.513 85.9205 314.178 86.2841C314.842 86.642 315.359 87.1875 315.729 87.9205C316.098 88.6477 316.283 89.5682 316.283 90.6818V99H314.271V90.8182C314.271 89.7898 314.004 88.9886 313.47 88.4148C312.936 87.8352 312.203 87.5455 311.271 87.5455C310.629 87.5455 310.055 87.6847 309.55 87.9631C309.05 88.2415 308.655 88.6477 308.365 89.1818C308.075 89.7159 307.93 90.3636 307.93 91.125ZM325.276 99.2727C324.094 99.2727 323.058 98.9915 322.165 98.429C321.279 97.8665 320.586 97.0795 320.086 96.0682C319.592 95.0568 319.344 93.875 319.344 92.5227C319.344 91.1591 319.592 89.9687 320.086 88.9517C320.586 87.9347 321.279 87.1449 322.165 86.5824C323.058 86.0199 324.094 85.7386 325.276 85.7386C326.458 85.7386 327.492 86.0199 328.379 86.5824C329.271 87.1449 329.964 87.9347 330.458 88.9517C330.958 89.9687 331.208 91.1591 331.208 92.5227C331.208 93.875 330.958 95.0568 330.458 96.0682C329.964 97.0795 329.271 97.8665 328.379 98.429C327.492 98.9915 326.458 99.2727 325.276 99.2727ZM325.276 97.4659C326.174 97.4659 326.913 97.2358 327.492 96.7756C328.072 96.3153 328.501 95.7102 328.779 94.9602C329.058 94.2102 329.197 93.3977 329.197 92.5227C329.197 91.6477 329.058 90.8324 328.779 90.0767C328.501 89.321 328.072 88.7102 327.492 88.2443C326.913 87.7784 326.174 87.5455 325.276 87.5455C324.379 87.5455 323.64 87.7784 323.06 88.2443C322.481 88.7102 322.052 89.321 321.773 90.0767C321.495 90.8324 321.356 91.6477 321.356 92.5227C321.356 93.3977 321.495 94.2102 321.773 94.9602C322.052 95.7102 322.481 96.3153 323.06 96.7756C323.64 97.2358 324.379 97.4659 325.276 97.4659ZM341.301 99V81.5455H343.312V87.9886H343.483C343.631 87.7614 343.835 87.4716 344.097 87.1193C344.364 86.7614 344.744 86.4432 345.239 86.1648C345.739 85.8807 346.415 85.7386 347.267 85.7386C348.369 85.7386 349.341 86.0142 350.182 86.5653C351.023 87.1165 351.679 87.8977 352.151 88.9091C352.622 89.9205 352.858 91.1136 352.858 92.4886C352.858 93.875 352.622 95.0767 352.151 96.0938C351.679 97.1051 351.026 97.8892 350.19 98.446C349.355 98.9972 348.392 99.2727 347.301 99.2727C346.46 99.2727 345.787 99.1335 345.281 98.8551C344.776 98.571 344.386 98.25 344.114 97.892C343.841 97.5284 343.631 97.2273 343.483 96.9886H343.244V99H341.301ZM343.278 92.4545C343.278 93.4432 343.423 94.3153 343.713 95.071C344.003 95.821 344.426 96.4091 344.983 96.8352C345.54 97.2557 346.222 97.4659 347.028 97.4659C347.869 97.4659 348.571 97.2443 349.134 96.8011C349.702 96.3523 350.128 95.75 350.412 94.9943C350.702 94.233 350.847 93.3864 350.847 92.4545C350.847 91.5341 350.705 90.7045 350.42 89.9659C350.142 89.2216 349.719 88.6335 349.151 88.2017C348.588 87.7642 347.881 87.5455 347.028 87.5455C346.21 87.5455 345.523 87.7528 344.966 88.1676C344.409 88.5767 343.989 89.1506 343.705 89.8892C343.42 90.6222 343.278 91.4773 343.278 92.4545ZM361.253 99.2727C360.071 99.2727 359.034 98.9915 358.142 98.429C357.256 97.8665 356.562 97.0795 356.062 96.0682C355.568 95.0568 355.321 93.875 355.321 92.5227C355.321 91.1591 355.568 89.9687 356.062 88.9517C356.562 87.9347 357.256 87.1449 358.142 86.5824C359.034 86.0199 360.071 85.7386 361.253 85.7386C362.435 85.7386 363.469 86.0199 364.355 86.5824C365.247 87.1449 365.94 87.9347 366.435 88.9517C366.935 89.9687 367.185 91.1591 367.185 92.5227C367.185 93.875 366.935 95.0568 366.435 96.0682C365.94 97.0795 365.247 97.8665 364.355 98.429C363.469 98.9915 362.435 99.2727 361.253 99.2727ZM361.253 97.4659C362.151 97.4659 362.889 97.2358 363.469 96.7756C364.048 96.3153 364.477 95.7102 364.756 94.9602C365.034 94.2102 365.173 93.3977 365.173 92.5227C365.173 91.6477 365.034 90.8324 364.756 90.0767C364.477 89.321 364.048 88.7102 363.469 88.2443C362.889 87.7784 362.151 87.5455 361.253 87.5455C360.355 87.5455 359.616 87.7784 359.037 88.2443C358.457 88.7102 358.028 89.321 357.75 90.0767C357.472 90.8324 357.332 91.6477 357.332 92.5227C357.332 93.3977 357.472 94.2102 357.75 94.9602C358.028 95.7102 358.457 96.3153 359.037 96.7756C359.616 97.2358 360.355 97.4659 361.253 97.4659ZM375.948 85.9091V87.6136H369.164V85.9091H375.948ZM371.141 82.7727H373.153V95.25C373.153 95.8182 373.235 96.2443 373.4 96.5284C373.57 96.8068 373.786 96.9943 374.048 97.0909C374.315 97.1818 374.596 97.2273 374.891 97.2273C375.113 97.2273 375.295 97.2159 375.437 97.1932C375.579 97.1648 375.692 97.142 375.778 97.125L376.187 98.9318C376.05 98.983 375.86 99.0341 375.616 99.0852C375.371 99.142 375.062 99.1705 374.687 99.1705C374.119 99.1705 373.562 99.0483 373.016 98.804C372.477 98.5597 372.028 98.1875 371.67 97.6875C371.317 97.1875 371.141 96.5568 371.141 95.7955V82.7727ZM382.826 99.3068C381.996 99.3068 381.244 99.1506 380.567 98.8381C379.891 98.5199 379.354 98.0625 378.957 97.4659C378.559 96.8636 378.36 96.1364 378.36 95.2841C378.36 94.5341 378.508 93.9261 378.803 93.4602C379.099 92.9886 379.494 92.6193 379.988 92.3523C380.482 92.0852 381.028 91.8864 381.624 91.7557C382.227 91.6193 382.832 91.5114 383.44 91.4318C384.235 91.3295 384.88 91.2528 385.374 91.2017C385.874 91.1449 386.238 91.0511 386.465 90.9205C386.698 90.7898 386.815 90.5625 386.815 90.2386V90.1705C386.815 89.3295 386.585 88.6761 386.124 88.2102C385.67 87.7443 384.979 87.5114 384.053 87.5114C383.093 87.5114 382.34 87.7216 381.795 88.142C381.249 88.5625 380.866 89.0114 380.644 89.4886L378.735 88.8068C379.076 88.0114 379.531 87.392 380.099 86.9489C380.673 86.5 381.298 86.1875 381.974 86.0114C382.656 85.8295 383.326 85.7386 383.985 85.7386C384.406 85.7386 384.888 85.7898 385.434 85.892C385.985 85.9886 386.516 86.1903 387.028 86.4972C387.545 86.804 387.974 87.267 388.315 87.8864C388.656 88.5057 388.826 89.3352 388.826 90.375V99H386.815V97.2273H386.712C386.576 97.5114 386.349 97.8153 386.031 98.1392C385.712 98.4631 385.289 98.7386 384.761 98.9659C384.232 99.1932 383.587 99.3068 382.826 99.3068ZM383.133 97.5C383.928 97.5 384.599 97.3438 385.144 97.0312C385.695 96.7188 386.11 96.3153 386.388 95.821C386.673 95.3267 386.815 94.8068 386.815 94.2614V92.4205C386.729 92.5227 386.542 92.6165 386.252 92.7017C385.968 92.7812 385.638 92.8523 385.263 92.9148C384.894 92.9716 384.533 93.0227 384.181 93.0682C383.835 93.108 383.553 93.142 383.337 93.1705C382.815 93.2386 382.326 93.3494 381.871 93.5028C381.423 93.6506 381.059 93.875 380.781 94.1761C380.508 94.4716 380.371 94.875 380.371 95.3864C380.371 96.0852 380.63 96.6136 381.147 96.9716C381.67 97.3239 382.332 97.5 383.133 97.5ZM381.496 84.3409L379.928 84.2727C379.928 83.4034 380.175 82.6932 380.67 82.142C381.17 81.5852 381.786 81.3068 382.519 81.3068C382.843 81.3068 383.13 81.3636 383.38 81.4773C383.63 81.5852 383.869 81.7102 384.096 81.8523C384.323 81.9943 384.556 82.1222 384.795 82.2358C385.039 82.3437 385.315 82.3977 385.621 82.3977C385.945 82.3977 386.218 82.2727 386.44 82.0227C386.667 81.767 386.781 81.4602 386.781 81.1023L388.315 81.2386C388.315 82.125 388.065 82.8295 387.565 83.3523C387.07 83.875 386.457 84.1364 385.724 84.1364C385.332 84.1364 385.008 84.0824 384.752 83.9744C384.496 83.8608 384.269 83.733 384.07 83.5909C383.871 83.4489 383.661 83.3239 383.44 83.2159C383.218 83.1023 382.945 83.0455 382.621 83.0455C382.298 83.0455 382.028 83.1733 381.812 83.429C381.602 83.679 381.496 83.983 381.496 84.3409ZM397.815 99.2727C396.634 99.2727 395.597 98.9915 394.705 98.429C393.818 97.8665 393.125 97.0795 392.625 96.0682C392.131 95.0568 391.884 93.875 391.884 92.5227C391.884 91.1591 392.131 89.9687 392.625 88.9517C393.125 87.9347 393.818 87.1449 394.705 86.5824C395.597 86.0199 396.634 85.7386 397.815 85.7386C398.997 85.7386 400.031 86.0199 400.918 86.5824C401.81 87.1449 402.503 87.9347 402.997 88.9517C403.497 89.9687 403.747 91.1591 403.747 92.5227C403.747 93.875 403.497 95.0568 402.997 96.0682C402.503 97.0795 401.81 97.8665 400.918 98.429C400.031 98.9915 398.997 99.2727 397.815 99.2727ZM397.815 97.4659C398.713 97.4659 399.452 97.2358 400.031 96.7756C400.611 96.3153 401.04 95.7102 401.318 94.9602C401.597 94.2102 401.736 93.3977 401.736 92.5227C401.736 91.6477 401.597 90.8324 401.318 90.0767C401.04 89.321 400.611 88.7102 400.031 88.2443C399.452 87.7784 398.713 87.5455 397.815 87.5455C396.918 87.5455 396.179 87.7784 395.599 88.2443C395.02 88.7102 394.591 89.321 394.312 90.0767C394.034 90.8324 393.895 91.6477 393.895 92.5227C393.895 93.3977 394.034 94.2102 394.312 94.9602C394.591 95.7102 395.02 96.3153 395.599 96.7756C396.179 97.2358 396.918 97.4659 397.815 97.4659Z" fill="white"/>
</svg>
